<svg width="111" height="111" viewBox="0 0 111 111" fill="none" xmlns="http://www.w3.org/2000/svg">
<path d="M3.25195 65.2558H7.14996L12.4595 102.624C13.1418 107.399 17.2937 111 22.1174 111H88.8826C93.7063 111 97.8582 107.399 98.5407 102.621L103.85 65.2558H107.748C109.544 65.2558 111 63.7998 111 62.0039V48.9961C111 47.2001 109.544 45.7441 107.748 45.7441H90.2213L78.0311 15.2688C77.364 13.6014 75.4718 12.79 73.8039 13.4573C72.1363 14.1243 71.3253 16.0168 71.9924 17.6844L83.2162 45.7441H27.7838L39.0078 17.6844C39.6749 16.0168 38.8637 14.1243 37.1963 13.4573C35.5289 12.7904 33.6363 13.6014 32.9692 15.2688L20.7787 45.7441H3.25195C1.45601 45.7441 0 47.2001 0 48.9961V62.0039C0 63.7998 1.45601 65.2558 3.25195 65.2558ZM92.102 101.704C91.8746 103.296 90.4906 104.496 88.8828 104.496H22.1174C20.5094 104.496 19.1254 103.296 18.8984 101.707L13.7193 65.2558H97.2809L92.102 101.704ZM6.50391 52.248H104.496V58.7519C102.785 58.7519 8.24002 58.7519 6.50391 58.7519V52.248Z" fill="#00430F"/>
<path d="M55.4986 0C53.7027 0 52.2467 1.45601 52.2467 3.25195V28.1374L51.2941 27.1848C50.0243 25.9148 47.9652 25.9148 46.6952 27.1848C45.4252 28.4548 45.4252 30.5137 46.6952 31.7837L53.1991 38.2876C53.8341 38.9228 54.6664 39.2402 55.4986 39.2402C56.3309 39.2402 57.1632 38.9228 57.798 38.2878L64.3019 31.7839C65.5719 30.5139 65.5719 28.455 64.3019 27.185C63.0321 25.915 60.973 25.915 59.703 27.185L58.7506 28.1374V3.25195C58.7506 1.45601 57.2946 0 55.4986 0Z" fill="#00430F"/>
<path d="M35.9897 71.7597C34.1938 71.7597 32.7378 73.2157 32.7378 75.0117V94.7402C32.7378 96.5361 34.1938 97.9921 35.9897 97.9921C37.7857 97.9921 39.2417 96.5361 39.2417 94.7402V75.0117C39.2417 73.2157 37.7857 71.7597 35.9897 71.7597Z" fill="#00430F"/>
<path d="M55.4985 71.7597C53.7026 71.7597 52.2466 73.2157 52.2466 75.0117V94.7402C52.2466 96.5361 53.7026 97.9921 55.4985 97.9921C57.2945 97.9921 58.7505 96.5361 58.7505 94.7402V75.0117C58.7505 73.2157 57.2945 71.7597 55.4985 71.7597Z" fill="#00430F"/>
<path d="M75.0103 71.7597C73.2143 71.7597 71.7583 73.2157 71.7583 75.0117V94.7402C71.7583 96.5361 73.2143 97.9921 75.0103 97.9921C76.8062 97.9921 78.2622 96.5361 78.2622 94.7402V75.0117C78.2622 73.2157 76.8062 71.7597 75.0103 71.7597Z" fill="#00430F"/>
</svg>
