<svg width="109" height="109" viewBox="0 0 109 109" fill="none" xmlns="http://www.w3.org/2000/svg">
<path d="M54.5 109C24.4475 109 0 84.5525 0 54.5C0 24.4475 24.4475 0 54.5 0C84.5525 0 109 24.4475 109 54.5C109 84.5525 84.5525 109 54.5 109ZM54.5 6.8125C28.2038 6.8125 6.8125 28.2038 6.8125 54.5C6.8125 80.7962 28.2038 102.188 54.5 102.188C80.7962 102.188 102.188 80.7962 102.188 54.5C102.188 28.2038 80.7962 6.8125 54.5 6.8125Z" fill="#00430F"/>
<path d="M78.3438 84.0211C77.4714 84.0211 76.5999 83.6893 75.9363 83.0215L52.0925 59.1778C51.4522 58.5374 51.0938 57.6701 51.0938 56.7711V24.9789C51.0938 23.0986 52.6197 21.5726 54.5 21.5726C56.3803 21.5726 57.9062 23.0986 57.9062 24.9789V55.3582L80.7512 78.2032C82.0818 79.5338 82.0818 81.6909 80.7512 83.0215C80.0876 83.6893 79.2161 84.0211 78.3438 84.0211V84.0211Z" fill="#00430F"/>
</svg>
