<svg width="171" height="170" viewBox="0 0 171 170" fill="none" xmlns="http://www.w3.org/2000/svg">
<path d="M100.199 126.37H56.2451V121.775H100.199C100.59 121.775 100.966 121.62 101.242 121.345C101.519 121.069 101.675 120.696 101.676 120.307V35.9527C101.679 35.5601 101.525 35.1823 101.248 34.9024C100.971 34.6224 100.594 34.4631 100.199 34.4595H10.7198C10.3249 34.4631 9.94761 34.6224 9.67075 34.9024C9.3939 35.1823 9.24013 35.5601 9.2432 35.9527V120.307C9.24382 120.696 9.39958 121.069 9.67637 121.345C9.95315 121.62 10.3284 121.775 10.7198 121.775H28.2612V126.37H10.7198C9.10302 126.368 7.55298 125.729 6.40974 124.592C5.2665 123.455 4.62342 121.915 4.62158 120.307V35.9527C4.62035 34.3421 5.26164 32.7968 6.40481 31.6555C7.54799 30.5143 9.09975 29.8703 10.7198 29.8649H100.199C101.819 29.8703 103.371 30.5143 104.514 31.6555C105.657 32.7968 106.298 34.3421 106.297 35.9527V120.307C106.295 121.915 105.652 123.455 104.509 124.592C103.366 125.729 101.816 126.368 100.199 126.37V126.37Z" fill="#00430F"/>
<path d="M100.199 121.775H119.964V126.37H100.199V121.775Z" fill="#00430F"/>
<path d="M154.824 126.37H147.97V121.775H154.824C156.663 121.775 158.426 121.049 159.726 119.757C161.026 118.464 161.757 116.711 161.757 114.883V96.7599C161.756 95.4984 161.408 94.2611 160.749 93.183L143.765 65.3857C143.144 64.3762 142.274 63.5415 141.236 62.9612C140.199 62.3809 139.03 62.0743 137.84 62.0707H103.986V57.4761H137.84C139.822 57.4814 141.77 57.9908 143.498 58.9559C145.227 59.9209 146.678 61.3095 147.714 62.9896L164.698 90.7869C165.799 92.5871 166.38 94.6534 166.378 96.7599V114.883C166.375 117.929 165.156 120.848 162.99 123.001C160.824 125.155 157.887 126.366 154.824 126.37V126.37Z" fill="#00430F"/>
<path d="M133.967 140.282C130.742 140.282 127.59 139.331 124.909 137.55C122.227 135.769 120.137 133.238 118.903 130.276C117.669 127.314 117.346 124.054 117.975 120.91C118.605 117.766 120.157 114.877 122.438 112.61C124.718 110.343 127.623 108.8 130.786 108.174C133.949 107.549 137.228 107.87 140.207 109.097C143.186 110.323 145.733 112.401 147.524 115.067C149.316 117.732 150.272 120.866 150.272 124.072C150.268 128.37 148.549 132.491 145.492 135.53C142.435 138.569 138.29 140.278 133.967 140.282V140.282ZM133.967 112.46C131.656 112.46 129.398 113.141 127.476 114.417C125.555 115.693 124.057 117.507 123.173 119.63C122.289 121.752 122.057 124.088 122.508 126.341C122.959 128.594 124.072 130.663 125.706 132.288C127.34 133.912 129.422 135.018 131.688 135.467C133.954 135.915 136.303 135.685 138.438 134.806C140.573 133.927 142.398 132.438 143.682 130.528C144.965 128.618 145.651 126.372 145.651 124.075C145.648 120.995 144.416 118.043 142.225 115.865C140.035 113.687 137.065 112.463 133.967 112.46V112.46Z" fill="#00430F"/>
<path d="M42.2441 140.282C39.0192 140.282 35.8668 139.331 33.1854 137.55C30.5041 135.769 28.4142 133.238 27.1801 130.276C25.946 127.314 25.6231 124.054 26.2523 120.91C26.8814 117.766 28.4343 114.877 30.7146 112.61C32.9949 110.343 35.9002 108.8 39.0631 108.174C42.226 107.549 45.5044 107.87 48.4837 109.097C51.4631 110.323 54.0096 112.401 55.8012 115.067C57.5929 117.732 58.5491 120.866 58.5491 124.072C58.5442 128.37 56.8248 132.49 53.7681 135.529C50.7113 138.568 46.5669 140.277 42.2441 140.282V140.282ZM42.2441 112.46C39.9333 112.46 37.6744 113.141 35.7531 114.417C33.8317 115.693 32.3342 117.507 31.4499 119.63C30.5657 121.752 30.3343 124.088 30.7851 126.341C31.2359 128.594 32.3486 130.663 33.9826 132.288C35.6166 133.912 37.6984 135.018 39.9647 135.467C42.2311 135.915 44.5802 135.685 46.7151 134.806C48.85 133.927 50.6747 132.438 51.9585 130.528C53.2423 128.618 53.9275 126.372 53.9275 124.075C53.9238 120.995 52.6917 118.043 50.5015 115.866C48.3112 113.688 45.3416 112.463 42.2441 112.46V112.46Z" fill="#00430F"/>
<path d="M6.90918 94.4445H92.4092V98.7374H6.90918V94.4445Z" fill="#00430F"/>
<path d="M164.067 96.4864H115.658V59.7642H120.28V91.8919H164.067V96.4864Z" fill="#00430F"/>
<path d="M117.969 101.081H127.095V105.676H117.969V101.081Z" fill="#00430F"/>
<path d="M33.2756 88.8295C32.9329 88.8296 32.5945 88.7539 32.2849 88.6079C31.9752 88.4619 31.7021 88.2492 31.4854 87.9854C31.2686 87.7215 31.1136 87.413 31.0315 87.0822C30.9495 86.7514 30.9425 86.4066 31.011 86.0728L39.7459 43.1891C39.8643 42.6642 40.16 42.1954 40.5839 41.861C41.0077 41.5266 41.5341 41.3467 42.0752 41.3513C71.025 41.3513 79.7784 70.4144 79.8639 70.7085C80.0268 71.2745 79.9649 71.881 79.691 72.403C79.4171 72.925 78.9521 73.3225 78.3919 73.5135L34.0243 88.6986C33.7838 88.783 33.5308 88.8273 33.2756 88.8295ZM43.8823 45.9918L36.3467 83.0518L74.7062 69.9228C72.3653 63.9062 64.0256 46.9567 43.8869 45.9895L43.8823 45.9918Z" fill="#00430F"/>
<path d="M68.2848 74.7517C62.6418 62.1166 53.9577 55.4291 40.1553 53.0399L40.9479 48.512C56.2316 51.1562 66.2605 58.9003 72.5089 72.8863L68.2848 74.7517Z" fill="#00430F"/>
<path d="M45.165 62.1355L48.433 58.8866L51.17 61.6076L47.902 64.8564L45.165 62.1355Z" fill="#00430F"/>
<path d="M46.7549 72.8524L48.5894 68.6353L53.5079 70.7499L51.6734 74.9671L46.7549 72.8524Z" fill="#00430F"/>
<path d="M40.2026 78.2865L41.4222 73.8548L45.2158 74.8865L43.9962 79.3183L40.2026 78.2865Z" fill="#00430F"/>
<path d="M55.751 68.8757L56.4718 64.3373L60.8132 65.0188L60.0924 69.5572L55.751 68.8757Z" fill="#00430F"/>
</svg>
