<svg width="116" height="116" viewBox="0 0 116 116" fill="none" xmlns="http://www.w3.org/2000/svg">
<path d="M58 95.3828C59.001 95.3828 59.8125 94.5713 59.8125 93.5703C59.8125 92.5693 59.001 91.7578 58 91.7578C56.999 91.7578 56.1875 92.5693 56.1875 93.5703C56.1875 94.5713 56.999 95.3828 58 95.3828Z" fill="#00430F"/>
<path d="M50.75 95.3828C51.751 95.3828 52.5625 94.5713 52.5625 93.5703C52.5625 92.5693 51.751 91.7578 50.75 91.7578C49.749 91.7578 48.9375 92.5693 48.9375 93.5703C48.9375 94.5713 49.749 95.3828 50.75 95.3828Z" fill="#00430F"/>
<path d="M65.25 95.3828C66.251 95.3828 67.0625 94.5713 67.0625 93.5703C67.0625 92.5693 66.251 91.7578 65.25 91.7578C64.249 91.7578 63.4375 92.5693 63.4375 93.5703C63.4375 94.5713 64.249 95.3828 65.25 95.3828Z" fill="#00430F"/>
<path d="M21.75 12.2344V103.766C21.7526 106.048 22.6605 108.237 24.2745 109.851C25.8885 111.465 28.0768 112.372 30.3594 112.375H85.6406C87.9232 112.372 90.1115 111.465 91.7255 109.851C93.3395 108.237 94.2474 106.048 94.25 103.766V54.66L96.6953 53.1382C97.4026 52.698 98.0162 52.1228 98.5012 51.4454C98.9862 50.768 99.333 50.0018 99.5219 49.1904C99.7107 48.3789 99.7379 47.5383 99.6018 46.7164C99.4658 45.8945 99.1692 45.1074 98.7289 44.4001L94.25 37.2043V12.2344C94.2474 9.95182 93.3395 7.76349 91.7255 6.14948C90.1115 4.53546 87.9232 3.62758 85.6406 3.625H30.3594C28.0768 3.62758 25.8885 4.53546 24.2745 6.14948C22.6605 7.76349 21.7526 9.95182 21.75 12.2344V12.2344ZM25.375 103.766V101.5H51.7253C51.0865 102.601 50.75 103.852 50.75 105.125C50.75 106.398 51.0865 107.649 51.7253 108.75H30.3594C29.0379 108.749 27.771 108.223 26.8365 107.288C25.9021 106.354 25.3765 105.087 25.375 103.766V103.766ZM61.625 105.125C61.625 105.842 61.4124 106.543 61.0141 107.139C60.6158 107.735 60.0496 108.2 59.3872 108.474C58.7248 108.748 57.996 108.82 57.2928 108.68C56.5896 108.54 55.9437 108.195 55.4367 107.688C54.9298 107.181 54.5845 106.535 54.4447 105.832C54.3048 105.129 54.3766 104.4 54.6509 103.738C54.9253 103.075 55.3899 102.509 55.9861 102.111C56.5822 101.713 57.283 101.5 58 101.5C58.9611 101.501 59.8824 101.883 60.562 102.563C61.2416 103.243 61.6239 104.164 61.625 105.125V105.125ZM90.625 103.766C90.6235 105.087 90.0979 106.354 89.1635 107.288C88.229 108.223 86.9621 108.749 85.6406 108.75H64.2758C64.9147 107.649 65.2511 106.398 65.2511 105.125C65.2511 103.852 64.9147 102.601 64.2758 101.5H90.625V103.766ZM95.9911 48.3686C95.9111 48.7167 95.7628 49.0455 95.5549 49.3359C95.347 49.6264 95.0835 49.8727 94.7797 50.0606L87 54.9027V47.125C86.9999 46.2956 86.8098 45.4772 86.4442 44.7327C86.0786 43.9882 85.5474 43.3373 84.8912 42.8301L91.0831 38.9762L95.6513 46.3169C95.8407 46.6194 95.9683 46.9565 96.0266 47.3087C96.0849 47.6609 96.0729 48.0211 95.9911 48.3686ZM31.2237 40.5812C30.8435 39.9688 30.7217 39.2306 30.8851 38.5285C31.0485 37.8265 31.4837 37.2179 32.0953 36.8363L67.4873 14.8081C68.0996 14.4282 68.8376 14.3067 69.5394 14.47C70.2413 14.6334 70.8497 15.0684 71.2312 15.6797L77.6477 25.9883L74.5703 27.9039L71.5058 22.9805C71.2517 22.5729 70.8463 22.2828 70.3785 22.174C69.9107 22.0652 69.4188 22.1465 69.0109 22.4C68.6026 22.6535 68.1105 22.7346 67.6424 22.6257C67.1744 22.5167 66.7686 22.2266 66.5142 21.8189C66.2602 21.4108 65.8545 21.1203 65.3863 21.0113C64.9181 20.9023 64.4258 20.9838 64.0177 21.2377L39.3972 36.5618C39.1951 36.6875 39.0197 36.8519 38.8811 37.0454C38.7425 37.2389 38.6434 37.4579 38.5895 37.6897C38.5355 37.9216 38.5277 38.1618 38.5666 38.3966C38.6055 38.6315 38.6903 38.8564 38.816 39.0585C39.0701 39.4666 39.1516 39.9588 39.0426 40.427C38.9337 40.8952 38.6432 41.3009 38.2351 41.555C38.1713 41.5953 38.11 41.6395 38.0516 41.6875H34.4375C33.6695 41.6871 32.9103 41.8503 32.2104 42.1665L31.2237 40.5812ZM79.8667 41.6875H73.0068L87.2519 32.8212L89.1675 35.8986L79.8667 41.6875ZM66.1712 41.6875H59.2864L81.113 28.1026C81.7252 27.7216 82.4636 27.5994 83.1658 27.7629C83.8681 27.9263 84.4766 28.3621 84.8576 28.9742L85.3364 29.7445C85.3364 29.7445 66.2254 41.6445 66.1712 41.6875ZM42.5892 38.8444L47.9361 35.5166C47.6113 37.6363 47.9905 39.8039 49.0154 41.6875H42.4478C42.4943 41.5434 42.5385 41.398 42.5727 41.2486C42.7582 40.4586 42.7638 39.6369 42.5892 38.8444V38.8444ZM53.1282 41.2505C52.8546 40.9573 52.6095 40.6387 52.3964 40.2989C51.9612 39.5997 51.668 38.8217 51.5335 38.0092C51.399 37.1966 51.4259 36.3656 51.6126 35.5635C51.7992 34.7614 52.1421 34.0038 52.6215 33.3342C53.1009 32.6646 53.7075 32.0959 54.4067 31.6608C55.1059 31.2256 55.884 30.9323 56.6965 30.7978C57.509 30.6633 58.34 30.6902 59.1421 30.8769C59.9443 31.0635 60.7018 31.4064 61.3714 31.8858C62.041 32.3652 62.6097 32.9719 63.0449 33.671C63.2564 34.012 63.435 34.3724 63.5782 34.7472L53.1282 41.2505ZM66.6914 32.8085C66.523 32.4462 66.333 32.0943 66.1225 31.7548C64.8841 29.754 62.9686 28.2644 60.7244 27.557L64.6575 25.109C65.292 25.6136 66.0309 25.9708 66.8205 26.1546C67.6101 26.3384 68.4307 26.3442 69.2228 26.1716L71.4934 29.8192L66.6914 32.8085ZM32.625 47.125C32.6255 46.6445 32.8167 46.1838 33.1565 45.844C33.4963 45.5042 33.957 45.313 34.4375 45.3125H81.5625C82.043 45.313 82.5037 45.5042 82.8435 45.844C83.1833 46.1838 83.3745 46.6445 83.375 47.125V50.75H81.5625C81.0818 50.75 80.6208 50.941 80.2809 51.2809C79.941 51.6208 79.75 52.0818 79.75 52.5625C79.75 53.0432 79.941 53.5042 80.2809 53.8441C80.6208 54.184 81.0818 54.375 81.5625 54.375H83.375V58H74.3125C72.3897 58 70.5456 58.7638 69.186 60.1235C67.8263 61.4831 67.0625 63.3272 67.0625 65.25C67.0625 67.1728 67.8263 69.0169 69.186 70.3765C70.5456 71.7362 72.3897 72.5 74.3125 72.5H83.375V76.125H81.5625C81.0818 76.125 80.6208 76.316 80.2809 76.6559C79.941 76.9958 79.75 77.4568 79.75 77.9375C79.75 78.4182 79.941 78.8792 80.2809 79.2191C80.6208 79.559 81.0818 79.75 81.5625 79.75H83.375V83.375C83.3745 83.8555 83.1833 84.3162 82.8435 84.656C82.5037 84.9958 82.043 85.187 81.5625 85.1875H34.4375C33.957 85.187 33.4963 84.9958 33.1565 84.656C32.8167 84.3162 32.6255 83.8555 32.625 83.375V47.125ZM83.375 68.875H74.3125C73.3511 68.875 72.4291 68.4931 71.7492 67.8133C71.0694 67.1334 70.6875 66.2114 70.6875 65.25C70.6875 64.2886 71.0694 63.3666 71.7492 62.6867C72.4291 62.0069 73.3511 61.625 74.3125 61.625H83.375V68.875ZM30.3594 7.25H85.6406C86.9621 7.2515 88.229 7.77712 89.1635 8.71155C90.0979 9.64597 90.6235 10.9129 90.625 12.2344V31.38L89.3744 29.3709L89.3721 29.3666L89.3694 29.3625L87.9352 27.0586C87.2118 25.8971 86.1325 25.0005 84.8581 24.5021C83.5838 24.0038 82.1825 23.9305 80.8631 24.2932L74.3098 13.7641C73.4193 12.3373 71.9993 11.322 70.3612 10.9407C68.7231 10.5595 67.0007 10.8435 65.5717 11.7305L30.1797 33.7578C28.7529 34.6483 27.7375 36.0683 27.3562 37.7064C26.975 39.3445 27.2591 41.0669 28.1461 42.4959L29.5478 44.7479C29.1864 45.4882 28.999 46.3012 29 47.125V83.375C29.0016 84.8166 29.575 86.1987 30.5944 87.2181C31.6138 88.2375 32.9959 88.8109 34.4375 88.8125H81.5625C83.0041 88.8109 84.3862 88.2375 85.4056 87.2181C86.425 86.1987 86.9984 84.8166 87 83.375V59.1725L90.625 56.9164V97.875H25.375V12.2344C25.3765 10.9129 25.9021 9.64597 26.8365 8.71155C27.771 7.77712 29.0379 7.2515 30.3594 7.25V7.25Z" fill="#00430F"/>
<path d="M38.0625 54.375H41.6875C42.1682 54.375 42.6292 54.184 42.9691 53.8441C43.309 53.5042 43.5 53.0432 43.5 52.5625C43.5 52.0818 43.309 51.6208 42.9691 51.2809C42.6292 50.941 42.1682 50.75 41.6875 50.75H38.0625C37.5818 50.75 37.1208 50.941 36.7809 51.2809C36.441 51.6208 36.25 52.0818 36.25 52.5625C36.25 53.0432 36.441 53.5042 36.7809 53.8441C37.1208 54.184 37.5818 54.375 38.0625 54.375Z" fill="#00430F"/>
<path d="M48.9375 54.375H52.5625C53.0432 54.375 53.5042 54.184 53.8441 53.8441C54.184 53.5042 54.375 53.0432 54.375 52.5625C54.375 52.0818 54.184 51.6208 53.8441 51.2809C53.5042 50.941 53.0432 50.75 52.5625 50.75H48.9375C48.4568 50.75 47.9958 50.941 47.6559 51.2809C47.316 51.6208 47.125 52.0818 47.125 52.5625C47.125 53.0432 47.316 53.5042 47.6559 53.8441C47.9958 54.184 48.4568 54.375 48.9375 54.375Z" fill="#00430F"/>
<path d="M59.8125 54.375H63.4375C63.9182 54.375 64.3792 54.184 64.7191 53.8441C65.059 53.5042 65.25 53.0432 65.25 52.5625C65.25 52.0818 65.059 51.6208 64.7191 51.2809C64.3792 50.941 63.9182 50.75 63.4375 50.75H59.8125C59.3318 50.75 58.8708 50.941 58.5309 51.2809C58.191 51.6208 58 52.0818 58 52.5625C58 53.0432 58.191 53.5042 58.5309 53.8441C58.8708 54.184 59.3318 54.375 59.8125 54.375Z" fill="#00430F"/>
<path d="M70.6875 54.375H74.3125C74.7932 54.375 75.2542 54.184 75.5941 53.8441C75.934 53.5042 76.125 53.0432 76.125 52.5625C76.125 52.0818 75.934 51.6208 75.5941 51.2809C75.2542 50.941 74.7932 50.75 74.3125 50.75H70.6875C70.2068 50.75 69.7458 50.941 69.4059 51.2809C69.066 51.6208 68.875 52.0818 68.875 52.5625C68.875 53.0432 69.066 53.5042 69.4059 53.8441C69.7458 54.184 70.2068 54.375 70.6875 54.375Z" fill="#00430F"/>
<path d="M38.0625 79.75H41.6875C42.1682 79.75 42.6292 79.559 42.9691 79.2191C43.309 78.8792 43.5 78.4182 43.5 77.9375C43.5 77.4568 43.309 76.9958 42.9691 76.6559C42.6292 76.316 42.1682 76.125 41.6875 76.125H38.0625C37.5818 76.125 37.1208 76.316 36.7809 76.6559C36.441 76.9958 36.25 77.4568 36.25 77.9375C36.25 78.4182 36.441 78.8792 36.7809 79.2191C37.1208 79.559 37.5818 79.75 38.0625 79.75Z" fill="#00430F"/>
<path d="M48.9375 79.75H52.5625C53.0432 79.75 53.5042 79.559 53.8441 79.2191C54.184 78.8792 54.375 78.4182 54.375 77.9375C54.375 77.4568 54.184 76.9958 53.8441 76.6559C53.5042 76.316 53.0432 76.125 52.5625 76.125H48.9375C48.4568 76.125 47.9958 76.316 47.6559 76.6559C47.316 76.9958 47.125 77.4568 47.125 77.9375C47.125 78.4182 47.316 78.8792 47.6559 79.2191C47.9958 79.559 48.4568 79.75 48.9375 79.75Z" fill="#00430F"/>
<path d="M59.8125 79.75H63.4375C63.9182 79.75 64.3792 79.559 64.7191 79.2191C65.059 78.8792 65.25 78.4182 65.25 77.9375C65.25 77.4568 65.059 76.9958 64.7191 76.6559C64.3792 76.316 63.9182 76.125 63.4375 76.125H59.8125C59.3318 76.125 58.8708 76.316 58.5309 76.6559C58.191 76.9958 58 77.4568 58 77.9375C58 78.4182 58.191 78.8792 58.5309 79.2191C58.8708 79.559 59.3318 79.75 59.8125 79.75Z" fill="#00430F"/>
<path d="M70.6875 79.75H74.3125C74.7932 79.75 75.2542 79.559 75.5941 79.2191C75.934 78.8792 76.125 78.4182 76.125 77.9375C76.125 77.4568 75.934 76.9958 75.5941 76.6559C75.2542 76.316 74.7932 76.125 74.3125 76.125H70.6875C70.2068 76.125 69.7458 76.316 69.4059 76.6559C69.066 76.9958 68.875 77.4568 68.875 77.9375C68.875 78.4182 69.066 78.8792 69.4059 79.2191C69.7458 79.559 70.2068 79.75 70.6875 79.75Z" fill="#00430F"/>
</svg>
