<svg width="146" height="39" viewBox="0 0 146 39" fill="none" xmlns="http://www.w3.org/2000/svg">
<path d="M102.839 6.07776L99.1754 28.8767H105.031L108.693 6.07776H102.839ZM120.503 15.3648C118.457 14.3542 117.202 13.6721 117.202 12.6386C117.227 11.6988 118.263 10.736 120.576 10.736C122.479 10.6882 123.877 11.1353 124.938 11.5802L125.469 11.8174L126.265 7.04729C125.109 6.60018 123.275 6.10753 121.009 6.10753C115.226 6.10753 111.154 9.11421 111.129 13.4144C111.081 16.5877 114.044 18.3487 116.262 19.405C118.527 20.4887 119.298 21.1912 119.298 22.154C119.273 23.6322 117.467 24.3142 115.781 24.3142C113.445 24.3142 112.19 23.963 110.285 23.1393L109.514 22.788L108.695 27.7453C110.071 28.3568 112.601 28.8949 115.227 28.9225C121.372 28.9225 125.371 25.9613 125.422 21.3784C125.442 18.8643 123.879 16.9388 120.503 15.3648ZM141.278 6.14832H136.748C135.351 6.14832 134.291 6.54989 133.686 7.98255L124.988 28.8767H131.133L132.826 24.353H139.702L140.58 28.8949H146L141.278 6.14832ZM134.53 19.7878C134.649 19.7993 136.889 12.4034 136.889 12.4034L138.673 19.7878C138.673 19.7878 135.687 19.7878 134.53 19.7878ZM94.2822 6.07776L88.5448 21.5675L87.9198 18.5128C86.859 14.9882 83.533 11.1581 79.8213 9.25558L85.075 28.8539H91.271L100.478 6.08026H94.2822V6.07776Z" fill="#2394BC"/>
<path d="M85.9895 9.01888C85.5424 7.28048 84.1165 6.10803 82.1799 6.08301H73.0936L73 6.50485C80.088 8.25226 86.0373 13.6291 87.9673 18.6867L85.9895 9.01888Z" fill="#EFC75E"/>
<path d="M11.6479 33.9401V32.0058C11.6591 31.8431 11.6358 31.6798 11.5795 31.5269C11.5232 31.374 11.4351 31.2349 11.3212 31.119C11.2073 31.0031 11.0702 30.9129 10.919 30.8546C10.7677 30.7963 10.6059 30.7711 10.4443 30.7807C10.2327 30.7668 10.0213 30.8103 9.83212 30.9067C9.64294 31.0031 9.48289 31.1489 9.36867 31.3287C9.26457 31.1542 9.11567 31.0112 8.93765 30.9148C8.75963 30.8183 8.55907 30.772 8.35711 30.7807C8.18106 30.7718 8.00575 30.8093 7.84854 30.8896C7.69133 30.9699 7.55767 31.0902 7.46079 31.2385V30.8581H6.79492V33.9401H7.46716V32.2314C7.45262 32.126 7.46146 32.0186 7.49302 31.917C7.52458 31.8154 7.57809 31.7221 7.64971 31.6439C7.72133 31.5656 7.80927 31.5042 7.90722 31.4642C8.00517 31.4243 8.11071 31.4066 8.21624 31.4126C8.65799 31.4126 8.88211 31.7027 8.88211 32.225V33.9401H9.55434V32.2314C9.5409 32.1262 9.5505 32.0193 9.58246 31.9181C9.61443 31.817 9.66799 31.7242 9.73938 31.6462C9.81076 31.5681 9.89825 31.5068 9.99569 31.4664C10.0931 31.4261 10.1982 31.4077 10.3034 31.4126C10.7579 31.4126 10.9756 31.7027 10.9756 32.225V33.9401H11.6479ZM21.597 30.8581H20.5087V29.9231H19.8364V30.8581H19.2154V31.4706H19.8364V32.8762C19.8364 33.5919 20.1117 34.0175 20.8992 34.0175C21.1934 34.0184 21.4818 33.9357 21.7315 33.7789L21.5394 33.2051C21.3609 33.3123 21.1582 33.3722 20.9504 33.3792C20.6175 33.3792 20.5087 33.1728 20.5087 32.8634V31.4706H21.597V30.8581ZM27.2759 30.7807C27.1135 30.7759 26.9529 30.8152 26.8109 30.8947C26.669 30.9741 26.5509 31.0907 26.4692 31.232V30.8581H25.8097V33.9401H26.4756V32.2121C26.4756 31.7027 26.6932 31.419 27.1287 31.419C27.2711 31.4171 27.4125 31.4433 27.5448 31.4964L27.7496 30.8645C27.5976 30.8097 27.4374 30.7814 27.2759 30.7807ZM18.6904 31.1031C18.3135 30.8774 17.8802 30.7655 17.442 30.7807C16.6673 30.7807 16.1679 31.1547 16.1679 31.7672C16.1679 32.2702 16.5392 32.5797 17.2242 32.6764L17.538 32.7215C17.9029 32.773 18.0758 32.8698 18.0758 33.0438C18.0758 33.2824 17.8324 33.4179 17.3779 33.4179C17.0123 33.4284 16.6537 33.3149 16.3599 33.0954L16.0463 33.6177C16.4341 33.8905 16.8986 34.0306 17.3715 34.0175C18.255 34.0175 18.7672 33.5984 18.7672 33.0116C18.7672 32.47 18.3639 32.1863 17.698 32.0896L17.3844 32.0444C17.0962 32.0058 16.8658 31.9478 16.8658 31.7415C16.8658 31.5157 17.0834 31.3803 17.4484 31.3803C17.7835 31.3854 18.1118 31.4764 18.4023 31.6447L18.6904 31.1031ZM36.5272 30.7807C36.3648 30.7759 36.2042 30.8152 36.0622 30.8947C35.9202 30.9741 35.8022 31.0907 35.7205 31.232V30.8581H35.0611V33.9401H35.7269V32.2121C35.7269 31.7027 35.9446 31.419 36.3799 31.419C36.5223 31.417 36.6638 31.4433 36.7961 31.4964L37.001 30.8645C36.8489 30.8097 36.6887 30.7814 36.5272 30.7807ZM27.9481 32.399C27.9392 32.6162 27.9756 32.8327 28.0549 33.0349C28.1341 33.237 28.2545 33.4202 28.4083 33.5726C28.5621 33.7251 28.7458 33.8434 28.9478 33.92C29.1497 33.9966 29.3653 34.0299 29.5807 34.0175C29.9805 34.0377 30.3733 33.9066 30.6819 33.6499L30.3618 33.1083C30.1316 33.285 29.8509 33.3823 29.5615 33.3856C29.312 33.3703 29.0776 33.2598 28.9063 33.0764C28.735 32.8931 28.6396 32.6508 28.6396 32.3991C28.6396 32.1473 28.735 31.9051 28.9063 31.7217C29.0776 31.5384 29.312 31.4278 29.5615 31.4126C29.8509 31.4159 30.1316 31.5131 30.3618 31.6899L30.6819 31.1482C30.3732 30.8916 29.9804 30.7605 29.5807 30.7807C29.3653 30.7683 29.1497 30.8016 28.9478 30.8782C28.7459 30.9548 28.5621 31.0731 28.4083 31.2255C28.2546 31.378 28.1342 31.5611 28.0549 31.7632C27.9756 31.9653 27.9392 32.1819 27.9481 32.399ZM34.1839 32.399V30.8581H33.5181V31.232C33.4044 31.0845 33.2574 30.9666 33.0892 30.8881C32.921 30.8095 32.7366 30.7727 32.5513 30.7807C32.1388 30.8011 31.7498 30.9805 31.4649 31.2817C31.1801 31.583 31.0212 31.9831 31.0212 32.3991C31.0212 32.8151 31.1801 33.2152 31.4649 33.5165C31.7498 33.8177 32.1388 33.9971 32.5513 34.0175C32.7366 34.0255 32.921 33.9887 33.0892 33.9101C33.2574 33.8316 33.4044 33.7136 33.5181 33.5661V33.9401H34.1839V32.399ZM31.7062 32.399C31.7166 32.2172 31.7795 32.0423 31.8873 31.896C31.9952 31.7498 32.1431 31.6385 32.313 31.5759C32.4829 31.5133 32.6672 31.5022 32.8433 31.5438C33.0194 31.5855 33.1795 31.6781 33.3039 31.8104C33.4284 31.9426 33.5117 32.1086 33.5435 32.2879C33.5754 32.4672 33.5545 32.652 33.4833 32.8195C33.4121 32.987 33.2938 33.1298 33.143 33.2304C32.9922 33.331 32.8155 33.3849 32.6346 33.3856C32.5078 33.3873 32.3821 33.3626 32.2652 33.3129C32.1484 33.2633 32.0431 33.1898 31.9559 33.0971C31.8686 33.0044 31.8014 32.8945 31.7585 32.7744C31.7155 32.6542 31.6977 32.5264 31.7062 32.399ZM23.6714 30.7807C23.2562 30.8027 22.8655 30.9858 22.5815 31.2916C22.2974 31.5974 22.142 32.0021 22.1478 32.4208C22.1536 32.8395 22.3201 33.2397 22.6126 33.5374C22.905 33.8351 23.3005 34.0072 23.7162 34.0175C24.173 34.0337 24.6197 33.8799 24.9711 33.5855L24.6445 33.089C24.3917 33.2931 24.0786 33.4065 23.7546 33.4114C23.5346 33.43 23.316 33.3617 23.1451 33.2209C22.9743 33.0801 22.8645 32.8778 22.8391 32.6569H25.1119C25.1183 32.5732 25.1247 32.4893 25.1247 32.399C25.1183 31.4384 24.5293 30.7807 23.6714 30.7807ZM23.6586 31.3803C23.8597 31.3764 24.0541 31.4529 24.1994 31.5931C24.3446 31.7333 24.4287 31.9257 24.4332 32.1283H22.8455C22.8572 31.9214 22.9488 31.7273 23.1007 31.5875C23.2527 31.4477 23.4529 31.3734 23.6586 31.3803ZM40.3621 32.399V29.6201H39.6963V31.232C39.5826 31.0845 39.4356 30.9666 39.2674 30.8881C39.0992 30.8095 38.9148 30.7727 38.7296 30.7807C38.317 30.801 37.928 30.9804 37.6431 31.2817C37.3583 31.583 37.1994 31.9831 37.1994 32.3991C37.1994 32.8151 37.3583 33.2152 37.6431 33.5165C37.928 33.8178 38.317 33.9972 38.7296 34.0175C38.9148 34.0255 39.0992 33.9887 39.2674 33.9101C39.4356 33.8316 39.5826 33.7136 39.6963 33.5661V33.9401H40.3621V32.399ZM41.4721 33.4935C41.5134 33.4932 41.5544 33.5014 41.5925 33.5175C41.6292 33.5329 41.6626 33.5552 41.6909 33.5832C41.7191 33.6111 41.7416 33.6443 41.7572 33.6808C41.7732 33.7183 41.7815 33.7588 41.7815 33.7996C41.7815 33.8405 41.7732 33.8809 41.7572 33.9185C41.7415 33.9548 41.719 33.9878 41.6909 34.0157C41.6625 34.0437 41.6291 34.0661 41.5925 34.0817C41.5545 34.0981 41.5135 34.1064 41.4721 34.1062C41.4111 34.1068 41.3514 34.0893 41.3003 34.0559C41.2492 34.0225 41.209 33.9747 41.1847 33.9185C41.1687 33.8809 41.1605 33.8405 41.1605 33.7996C41.1605 33.7588 41.1687 33.7184 41.1847 33.6808C41.2003 33.6443 41.2227 33.6112 41.2507 33.5832C41.279 33.555 41.3126 33.5327 41.3495 33.5175C41.3883 33.5013 41.43 33.4931 41.4721 33.4935ZM41.4721 34.0386C41.5036 34.0388 41.5349 34.0324 41.5638 34.0198C41.5916 34.0076 41.6169 33.9903 41.6383 33.9687C41.6825 33.9238 41.7073 33.8631 41.7073 33.7998C41.7073 33.7365 41.6825 33.6758 41.6383 33.6308C41.6169 33.6093 41.5916 33.5921 41.5638 33.5802C41.5348 33.5678 41.5036 33.5615 41.4721 33.5618C41.44 33.5615 41.4082 33.5678 41.3785 33.5802C41.3503 33.5919 41.3246 33.6091 41.3029 33.6308C41.2586 33.6758 41.2338 33.7365 41.2338 33.7998C41.2338 33.8631 41.2586 33.9238 41.3029 33.9687C41.3246 33.9905 41.3503 34.0078 41.3785 34.0198C41.4081 34.0324 41.4399 34.0388 41.4721 34.0386ZM41.49 33.6564C41.5199 33.6544 41.5496 33.6631 41.5739 33.6808C41.5836 33.6888 41.5912 33.699 41.5964 33.7105C41.6015 33.7221 41.6038 33.7346 41.6033 33.7473C41.6036 33.7581 41.6017 33.7688 41.5977 33.7788C41.5936 33.7888 41.5876 33.7979 41.5798 33.8054C41.5613 33.822 41.5378 33.8319 41.5131 33.8336L41.6055 33.9409H41.5332L41.4475 33.8343H41.4199V33.9409H41.3595V33.6564H41.49ZM41.4199 33.7097V33.7856H41.4893C41.5026 33.7862 41.5158 33.7829 41.5273 33.7761C41.532 33.773 41.5357 33.7687 41.5382 33.7636C41.5407 33.7585 41.5418 33.7529 41.5414 33.7473C41.5417 33.7417 41.5406 33.7362 41.5381 33.7312C41.5356 33.7263 41.5319 33.7221 41.5273 33.719C41.5158 33.7123 41.5026 33.7091 41.4893 33.7097H41.4199ZM37.8845 32.399C37.8948 32.2172 37.9578 32.0423 38.0656 31.8961C38.1734 31.7498 38.3214 31.6385 38.4913 31.576C38.6611 31.5134 38.8455 31.5023 39.0215 31.5439C39.1976 31.5856 39.3577 31.6783 39.4822 31.8105C39.6066 31.9427 39.6898 32.1087 39.7217 32.288C39.7536 32.4673 39.7326 32.6521 39.6614 32.8196C39.5903 32.987 39.472 33.1299 39.3212 33.2304C39.1704 33.331 38.9936 33.3849 38.8128 33.3856C38.686 33.3873 38.5602 33.3626 38.4434 33.3129C38.3266 33.2632 38.2213 33.1898 38.1341 33.0971C38.0469 33.0044 37.9796 32.8945 37.9367 32.7744C37.8937 32.6542 37.876 32.5264 37.8845 32.399ZM15.3996 32.399V30.8581H14.7338V31.232C14.6201 31.0845 14.473 30.9666 14.3048 30.8881C14.1367 30.8095 13.9522 30.7727 13.767 30.7807C13.3544 30.8011 12.9654 30.9805 12.6806 31.2817C12.3958 31.583 12.2369 31.9831 12.2369 32.3991C12.2369 32.8151 12.3958 33.2152 12.6806 33.5165C12.9654 33.8177 13.3544 33.9971 13.767 34.0175C13.9522 34.0255 14.1367 33.9887 14.3048 33.9101C14.473 33.8316 14.6201 33.7136 14.7338 33.5661V33.9401H15.3996V32.399ZM12.922 32.399C12.9323 32.2172 12.9953 32.0423 13.1031 31.8961C13.2109 31.7498 13.3589 31.6385 13.5287 31.576C13.6986 31.5134 13.883 31.5023 14.059 31.5439C14.2351 31.5856 14.3952 31.6783 14.5196 31.8105C14.6441 31.9427 14.7273 32.1087 14.7592 32.288C14.791 32.4673 14.7701 32.6521 14.6989 32.8196C14.6277 32.987 14.5095 33.1299 14.3587 33.2305C14.2079 33.331 14.0311 33.3849 13.8503 33.3856C13.7235 33.3873 13.5977 33.3626 13.4809 33.3129C13.3641 33.2632 13.2588 33.1898 13.1716 33.0971C13.0843 33.0044 13.0171 32.8945 12.9742 32.7744C12.9312 32.6542 12.9134 32.5264 12.922 32.399Z" fill="white"/>
<path d="M28.5425 7.37085H18.4575V25.6228H28.5425V7.37085Z" fill="#FF5F00"/>
<path d="M19.106 16.4961C19.1044 14.7383 19.4999 13.0032 20.2626 11.4221C21.0253 9.84103 22.1351 8.4554 23.5081 7.37015C21.8079 6.02419 19.7659 5.18716 17.6156 4.95472C15.4653 4.72229 13.2934 5.10383 11.3482 6.05574C9.40308 7.00766 7.76308 8.49153 6.6157 10.3378C5.46833 12.184 4.85986 14.3181 4.85986 16.4961C4.85986 18.6741 5.46833 20.8082 6.6157 22.6545C7.76308 24.5007 9.40308 25.9846 11.3482 26.9365C13.2934 27.8884 15.4653 28.2699 17.6156 28.0375C19.7659 27.8051 21.8079 26.968 23.5081 25.6221C22.1351 24.5368 21.0253 23.1512 20.2626 21.5701C19.4999 19.989 19.1044 18.2539 19.106 16.4961Z" fill="#EB001B"/>
<path d="M42.1472 16.4961C42.1473 18.6741 41.5389 20.8082 40.3916 22.6544C39.2443 24.5007 37.6043 25.9845 35.6592 26.9365C33.7141 27.8884 31.5422 28.2699 29.392 28.0375C27.2417 27.8051 25.1997 26.968 23.4995 25.6221C24.8713 24.5357 25.9803 23.1499 26.7429 21.569C27.5054 19.9882 27.9016 18.2536 27.9016 16.4961C27.9016 14.7386 27.5054 13.004 26.7429 11.4232C25.9803 9.84235 24.8713 8.4565 23.4995 7.37015C25.1997 6.02419 27.2417 5.18715 29.392 4.95472C31.5422 4.72229 33.7141 5.10384 35.6592 6.05576C37.6043 7.00768 39.2443 8.49156 40.3916 10.3378C41.5389 12.184 42.1473 14.3181 42.1472 16.4961Z" fill="#F79E1B"/>
<path d="M41.0625 23.6885V23.3148H41.2121V23.2387H40.8311V23.3148H40.9807V23.6885H41.0625ZM41.8022 23.6885V23.2379H41.6854L41.5511 23.5478L41.4167 23.2379H41.2998V23.6885H41.3823V23.3486L41.5083 23.6416H41.5938L41.7198 23.3479V23.6885H41.8022Z" fill="#F79E1B"/>
</svg>
