<svg width="144" height="146" viewBox="0 0 144 146" fill="none" xmlns="http://www.w3.org/2000/svg">
<path d="M65.1997 98.1443L65.2155 98.1492C65.0634 98.2106 64.9034 98.2706 64.7264 98.3323C64.6323 98.3652 64.5647 98.4086 64.5759 98.4304C64.587 98.4519 64.6673 98.4457 64.7674 98.4103C64.9341 98.3521 65.0877 98.2948 65.2349 98.2367L65.2305 98.2427C66.0078 98.1293 66.4147 97.8947 66.4184 97.8013C66.4218 97.7059 66.031 97.7533 65.1997 98.1443Z" fill="white"/>
<path d="M49.8378 100.69C49.2435 100.707 48.627 100.725 48.2933 100.753C47.7974 100.751 47.3082 100.723 46.7943 100.684L46.1847 100.636L46.1751 100.635C46.1178 100.631 46.0682 100.639 46.0617 100.653C46.0549 100.668 46.0991 100.684 46.1606 100.69L46.7649 100.738C47.2912 100.778 47.8362 100.811 48.3801 100.809L48.3459 100.833C48.787 100.835 49.4767 100.979 50.177 101C50.2303 100.829 51.0772 100.825 51.3066 100.684C51.1079 100.659 50.4862 100.674 49.8378 100.69Z" fill="white"/>
<path d="M31.8135 97.1243C32.2211 97.2133 32.4321 97.4164 32.6143 97.36C32.2709 97.2312 31.8627 97.0477 31.8135 97.1243Z" fill="white"/>
<path d="M64.7375 6.02067C64.8697 6.10391 65.0247 6.14319 65.1804 6.13291C64.8563 5.99214 64.7225 5.98863 64.7375 6.02067Z" fill="white"/>
<path d="M64.1111 5.84462C63.9768 5.79261 63.8303 5.78082 63.6895 5.81067C63.8241 5.86108 63.9701 5.87284 64.1111 5.84462V5.84462Z" fill="white"/>
<path d="M48.8168 4.96923C48.8238 4.94726 48.8359 4.92628 48.9534 4.9239L48.9435 4.91574C49.0063 4.91419 49.0689 4.91181 49.1309 4.90736C49.3517 4.89166 49.5678 4.86163 49.7751 4.83104L49.782 4.83543C50.2432 4.89098 50.7102 4.87165 51.1652 4.77817L51.1641 4.77735C51.1823 4.77724 51.2008 4.77713 51.2185 4.77667C51.4264 4.76927 51.6335 4.74668 51.8381 4.70908C52.0086 4.67335 52.1829 4.65984 52.3569 4.66887C52.4395 4.68042 52.5238 4.66925 52.6006 4.63657C52.6327 4.61099 52.5753 4.58355 52.4727 4.57554C52.1933 4.55705 51.9128 4.57491 51.6381 4.62867C51.4804 4.6606 51.3201 4.67763 51.1593 4.67952L51.1661 4.67404C50.6569 4.63403 50.1448 4.6561 49.6409 4.73978L49.6478 4.74453L49.6437 4.74484C49.4491 4.77352 49.26 4.80101 49.087 4.81052L49.0881 4.81011C48.8574 4.78038 48.6243 4.77532 48.3926 4.79502C48.5038 4.86323 48.4818 4.97491 48.8168 4.96923Z" fill="white"/>
<path d="M62.3574 6.00277C62.347 5.94726 62.4363 5.88815 62.2568 5.83807C62.2433 5.88851 61.9977 5.82267 61.7735 5.77093C61.5495 5.7188 61.348 5.67973 61.4257 5.77352C61.7217 5.90036 62.0364 5.9778 62.3574 6.00277V6.00277Z" fill="white"/>
<path d="M70.5469 8.62685C70.873 8.79055 71.2116 8.92784 71.5595 9.03743C71.014 8.7872 70.833 8.56705 70.5469 8.62685Z" fill="white"/>
<path d="M73.1727 9.77535L72.8074 9.59241L72.7749 9.65442L73.1398 9.83788L73.1727 9.77535Z" fill="white"/>
<path d="M57.3434 5.22778C56.9129 5.2006 56.9979 5.07166 56.6644 5.12582C56.4412 5.20974 57.3596 5.28416 57.3434 5.22778Z" fill="white"/>
<path d="M75.1578 10.9649C75.9866 11.3644 74.8624 10.666 75.1578 10.9649V10.9649Z" fill="white"/>
<path d="M54.8783 5.03314C54.6375 5.02952 54.1999 4.90415 54.0542 4.99748C54.3245 5.05953 54.6038 5.07162 54.8783 5.03314V5.03314Z" fill="white"/>
<path d="M4.09553 51.2629C4.10764 51.0485 4.11712 50.8315 4.12141 50.6117C4.12331 50.5207 4.10537 50.4608 4.08131 50.4775C4.04608 50.5365 4.02962 50.6049 4.0341 50.6735C4.02369 51.236 3.97628 51.7771 3.93603 52.3529C3.90217 52.8436 3.8746 53.3517 3.88682 53.8806L3.87857 53.8698C3.84976 54.3326 3.85688 54.8997 3.84322 55.3614C3.82884 55.823 3.79159 56.1802 3.65754 56.2254C3.62737 56.7131 3.68136 57.2023 3.81714 57.6716C3.93215 57.949 4.02799 58.2341 4.10398 58.5247C4.0977 57.7297 4.06631 56.8466 4.04096 56.0208C4.01525 55.1951 3.99432 54.4267 3.98236 53.8666L3.97211 53.8804C3.95886 53.379 3.98551 52.8819 4.01808 52.4009C4.04359 52.0296 4.07394 51.6506 4.09553 51.2629Z" fill="white"/>
<path d="M13.9497 24.4658C13.914 24.4233 14.1452 24.1683 14.0384 24.1831L13.7837 24.5154C13.829 24.5219 13.8465 24.5922 13.9497 24.4658Z" fill="white"/>
<path d="M13.7267 24.6467C13.6187 24.8188 13.2635 25.2008 13.3377 25.2256C13.5128 25.0676 13.6464 24.8688 13.7267 24.6467V24.6467Z" fill="white"/>
<path d="M7.69411 35.2888C7.68994 35.375 8.04517 34.535 7.90602 34.6236C7.81316 34.87 7.53147 35.3783 7.69411 35.2888Z" fill="white"/>
<path d="M22.114 90.1844L22.0799 90.1501C22.0594 90.1296 22.0376 90.1106 22.0146 90.0932C21.9737 90.06 21.9269 90.0349 21.8768 90.0191C21.8248 90.0081 21.8315 90.0489 21.892 90.1102C21.9631 90.1847 22.0395 90.2539 22.1205 90.3174L22.0935 90.3207C22.4671 90.6994 22.5194 90.5832 22.9814 90.9234C23.1035 90.7454 22.4607 90.3429 22.114 90.1844Z" fill="white"/>
<path d="M12.6885 26.9691L12.8442 26.7418L12.7875 26.703L12.6318 26.9314L12.6885 26.9691Z" fill="white"/>
<path d="M41.9487 97.8298C42.2925 97.8473 42.5584 98.0319 42.74 97.9507C42.3331 97.878 42.2495 97.7577 41.9487 97.8298Z" fill="white"/>
<path d="M16.6882 82.2831C16.4174 81.9369 16.3885 81.7532 16.0259 81.332C15.8494 81.4155 16.1579 81.8446 16.4985 82.2787C16.5385 82.2309 16.5995 82.2286 16.6882 82.2831Z" fill="white"/>
<path d="M7.45499 64.223C7.44267 63.955 7.24401 63.2114 7.11719 63.3736C7.16757 63.6739 7.25854 63.966 7.38758 64.2416C7.35832 64.0871 7.40646 64.1537 7.45499 64.223Z" fill="white"/>
<path d="M12.3774 76.527C12.5269 76.7942 12.7281 77.0288 12.9692 77.217C12.8914 77.0362 13.032 77.2177 13.0184 77.031C12.8623 76.8002 12.6382 76.624 12.3774 76.527V76.527Z" fill="white"/>
<path d="M6.98042 47.5637C6.91558 47.5869 6.82658 47.4148 6.80762 47.8078C6.88068 47.8519 6.94068 47.7896 6.98042 47.5637Z" fill="white"/>
<path d="M12.9045 76.6483L12.8452 76.6866L12.9797 76.9036L13.0385 76.8654L12.9045 76.6483Z" fill="white"/>
<path d="M77.8794 14.3783C78.0378 14.4494 77.9011 14.3556 77.8794 14.3783V14.3783Z" fill="white"/>
<path d="M65.9651 6.83876L65.9978 6.82687L66.0365 6.84914C66.1781 6.937 66.3258 7.01446 66.4785 7.08092L66.5152 7.0956L66.5528 7.10345L66.8438 7.16459C66.9034 7.1774 66.9363 7.16914 66.9169 7.14634C66.8752 7.11328 66.8258 7.09128 66.7734 7.08237L66.5275 7.03115C66.4296 6.98435 66.3343 6.93249 66.2418 6.87576L66.2722 6.78667C65.705 6.60894 65.3546 6.4908 65.0536 6.41004C64.7519 6.3268 64.4404 6.28407 64.1274 6.28296C64.3815 6.40708 64.6448 6.51112 64.915 6.59411C65.2558 6.71145 65.6077 6.79343 65.9651 6.83876V6.83876Z" fill="white"/>
<path d="M12.0949 27.2414C12.0037 27.1905 12.019 27.0412 12.1564 26.7823C12.2763 26.5816 12.4182 26.3951 12.5794 26.2261L12.5689 26.2188C12.6175 26.1563 12.6655 26.102 12.7171 26.0463C12.8008 25.9583 12.8786 25.865 12.95 25.7669L12.9767 25.7288C13.0025 25.6908 13.0142 25.6572 13.0025 25.6542C12.991 25.651 12.961 25.6789 12.9344 25.7177C12.8734 25.8041 12.8059 25.8856 12.7325 25.9617C12.6966 26.0005 12.66 26.0409 12.6221 26.0856C12.541 26.03 12.3947 26.1419 12.2746 26.1872C11.9333 26.5771 11.6738 27.0321 11.5118 27.5248C11.4798 27.6075 11.4653 27.696 11.4694 27.7846C11.4735 27.8732 11.496 27.9599 11.5355 28.0393C11.6968 27.7565 11.8841 27.4894 12.0949 27.2414V27.2414Z" fill="white"/>
<path d="M77.6762 13.2807C77.6579 13.2942 77.636 13.304 77.5456 13.2352C77.5831 13.1545 77.3984 13.0053 77.6452 13.0899C77.4595 12.9649 77.2729 12.8415 77.0856 12.7196C77.0522 12.8014 77.0084 12.8717 76.8564 12.823C77.2876 13.0688 77.7879 13.4677 77.6762 13.2807Z" fill="white"/>
<path d="M9.24121 54.1775C9.24652 54.9574 9.42782 54.0173 9.24121 54.1775V54.1775Z" fill="white"/>
<path d="M53.653 100.558L53.6282 100.56C53.5306 100.569 53.4468 100.595 53.4358 100.62C53.4237 100.648 53.5019 100.666 53.6101 100.659C53.7302 100.651 53.8603 100.646 53.935 100.643C54.0189 100.646 54.1019 100.626 54.175 100.584C54.2021 100.556 54.139 100.536 54.0337 100.539C53.9421 100.542 53.794 100.549 53.653 100.558Z" fill="white"/>
<path d="M44.7911 100.539C44.5965 100.523 44.4126 100.506 44.2261 100.483L44.2154 100.483C44.1377 100.474 44.07 100.482 44.0619 100.501C44.0533 100.521 44.1129 100.545 44.1951 100.555C44.3962 100.579 44.5957 100.597 44.7892 100.614L45.0459 100.635C45.1288 100.642 45.1976 100.631 45.1995 100.61C45.2015 100.59 45.1435 100.568 45.0534 100.561L44.7911 100.539Z" fill="white"/>
<path d="M4.60977 62.5922C4.61107 62.5713 4.60962 62.5504 4.60544 62.5299C4.60242 62.5128 4.59766 62.496 4.59122 62.4798C4.57777 62.4477 4.56447 62.446 4.56108 62.4761C4.54857 62.591 4.55598 62.7072 4.58298 62.8195C4.59225 62.8632 4.60818 62.8947 4.61889 62.8898C4.6293 62.8848 4.63018 62.8459 4.62137 62.8015C4.60449 62.7331 4.60055 62.6621 4.60977 62.5922V62.5922Z" fill="white"/>
<path d="M21.0574 87.3276C21.22 87.4347 21.375 87.5531 21.5212 87.6819C21.5771 87.7445 21.6523 87.7867 21.7348 87.8018C21.7719 87.7933 21.7365 87.7266 21.6559 87.6525C21.6022 87.6032 21.5489 87.5571 21.4963 87.5132C21.3314 87.3769 21.1714 87.2659 21.0268 87.164C20.9368 87.1006 20.8517 87.0405 20.7707 86.9771C20.6835 86.9092 20.6094 86.8832 20.6047 86.9187C20.6 86.9548 20.6685 87.0398 20.7546 87.1071C20.8591 87.1885 20.9601 87.2589 21.0574 87.3276Z" fill="white"/>
<path d="M58.9318 99.8584C58.8777 99.8662 58.8057 99.8743 58.7311 99.883L58.7103 99.8855L58.7449 99.8716C58.755 99.7491 58.2525 99.8016 57.8518 99.8276C57.4509 99.8537 57.1531 99.8591 57.5712 99.6729C57.0572 99.7251 56.5482 99.819 56.0494 99.9538C56.6816 99.9084 55.7345 100.122 56.3475 100.084C56.1537 100.169 55.6228 100.216 55.6636 100.322L55.6894 100.323L55.472 100.377L55.3725 100.401C55.2702 100.427 55.227 100.462 55.2761 100.482C55.3674 100.5 55.4616 100.496 55.5513 100.471L55.6536 100.445L55.8151 100.405L55.8145 100.406C56.7574 100.324 57.6949 100.189 58.6226 100.001L58.61 99.994L58.622 99.9925C58.7102 99.983 58.7949 99.973 58.8589 99.9637C58.9373 99.9587 59.0126 99.9313 59.076 99.8849C59.0961 99.8554 59.0316 99.8444 58.9318 99.8584Z" fill="white"/>
<path d="M5.37304 67.4566C5.34726 67.2922 5.31245 67.1294 5.26879 66.9688L5.26529 66.9567C5.23725 66.8604 5.19535 66.7902 5.17154 66.7995C5.14815 66.8091 5.15109 66.8931 5.17819 66.9884L5.17912 66.9918C5.20895 67.1047 5.23247 67.2193 5.24957 67.3348C5.28411 67.5893 5.35321 67.8378 5.45493 68.0735C5.49286 68.1547 5.52971 68.1777 5.53692 68.1258C5.53726 68.0423 5.51843 67.9598 5.48189 67.8848C5.42763 67.7473 5.39105 67.6034 5.37304 67.4566V67.4566Z" fill="white"/>
<path d="M10.6761 76.9664C10.6074 76.6438 10.4834 76.3356 10.3095 76.0555C10.1186 75.7163 9.94534 75.3674 9.79051 75.0101C9.75051 75.137 9.60395 74.8004 9.51469 74.7059C8.99802 73.8688 8.57683 72.9761 8.25906 72.0446C8.25205 72.0233 8.24406 72.0021 8.23509 71.9815C8.21244 71.9165 8.17342 71.8584 8.12182 71.813C8.08106 71.7906 8.07554 71.8589 8.11043 71.965C8.45256 72.9801 8.91042 73.9523 9.47491 74.8622L9.48259 74.8741L9.48248 74.8743C9.58071 75.1328 9.65519 75.3998 9.70501 75.6718C10.4378 77.0055 11.2487 78.2943 12.1337 79.5317C12.2402 79.6918 12.3521 79.9626 12.458 80.1238C12.6159 80.3666 12.9311 80.7077 13.114 80.9726C13.3669 81.4498 13.6982 81.8809 14.094 82.2477L14.0938 82.2187C14.1263 82.2747 14.1615 82.3286 14.1999 82.3857C14.2188 82.418 14.2463 82.4443 14.2794 82.4615C14.298 82.4656 14.2923 82.4381 14.2671 82.4002C14.2448 82.367 14.2246 82.3366 14.2056 82.3064C14.2231 82.1058 14.6065 82.7174 14.6779 82.6318C13.9076 81.5724 13.2894 80.7477 12.6608 79.8977C12.0358 79.0465 11.3994 78.1697 10.6761 76.9664Z" fill="white"/>
<path d="M17.5078 84.3723C17.544 84.4055 17.574 84.4173 17.575 84.3995C17.5638 84.3628 17.5416 84.3305 17.5114 84.3069C17.3895 84.19 17.2756 84.065 17.1704 83.9328C17.0869 83.8322 17.0018 83.7287 16.9075 83.6254C16.8645 83.5788 16.82 83.5318 16.7729 83.4853C16.7375 83.4507 16.7071 83.4363 16.7043 83.453C16.7015 83.4697 16.7269 83.5106 16.7628 83.546C16.8852 83.6708 17.0012 83.8019 17.1103 83.9386C17.2325 84.0923 17.3653 84.2372 17.5078 84.3723V84.3723Z" fill="white"/>
<path d="M10.9264 74.6798C10.7689 74.3207 10.5683 73.9822 10.329 73.6718L10.3241 73.6878C10.2652 73.5502 10.2076 73.4107 10.1528 73.2747C10.0419 72.9987 9.93023 72.7127 9.80387 72.4215L9.79809 72.408C9.75924 72.3239 9.7093 72.2606 9.68358 72.2649C9.65622 72.269 9.6657 72.3465 9.70513 72.4377C9.81902 72.7012 9.92008 72.9615 10.0302 73.2364C10.0793 73.3598 10.1315 73.4862 10.1853 73.6134L10.1776 73.6039C10.1261 73.6814 10.0683 73.7568 10.2883 74.1374C10.3037 73.9809 10.5305 74.4173 10.7366 74.7367C11.4959 76.2299 12.3501 77.6728 13.2937 79.0563C13.5989 79.5053 13.9098 79.9442 14.2221 80.3707C14.2652 80.4275 14.3161 80.4703 14.3334 80.4601C14.3509 80.4498 14.3292 80.3929 14.2849 80.333C13.9728 79.9074 13.6621 79.4692 13.3571 79.0201C12.4174 77.643 11.5667 76.2069 10.8101 74.7208L10.8345 74.7312C10.902 74.7518 10.9598 74.8401 10.9264 74.6798Z" fill="white"/>
<path d="M6.16697 54.5775C6.12369 54.8775 6.13097 55.1827 6.18851 55.4802C6.20039 55.6637 6.20029 55.8478 6.18821 56.0312C6.18207 56.1672 6.17712 56.3077 6.18129 56.4577C6.18403 56.5401 6.20335 56.6092 6.22525 56.6164C6.24716 56.6231 6.26272 56.5636 6.26035 56.483C6.25654 56.3657 6.26148 56.2467 6.26628 56.1209C6.27292 55.9575 6.28117 55.7778 6.27349 55.584C6.27122 55.5197 6.26689 55.4544 6.26025 55.387C6.25911 55.3759 6.25757 55.3657 6.25597 55.3558C6.39645 55.1788 6.23922 54.6894 6.16697 54.5775Z" fill="white"/>
<path d="M31.3635 72.3716H30.6079V73.7715H31.3635C31.5927 73.7871 31.8203 73.7234 32.0083 73.5911C32.0786 73.5242 32.1346 73.4436 32.1729 73.3543C32.2112 73.265 32.2309 73.1688 32.2309 73.0716C32.2309 72.9743 32.2112 72.8781 32.1729 72.7888C32.1346 72.6995 32.0786 72.6189 32.0083 72.552C31.8203 72.4197 31.5927 72.356 31.3635 72.3716Z" fill="white"/>
<path d="M28.2134 57.7421H26.3761C26.273 57.7422 26.1741 57.7833 26.1012 57.8564C26.0283 57.9295 25.9873 58.0287 25.9873 58.1321V61.4623C25.9873 61.5135 25.9973 61.5642 26.0169 61.6116C26.0364 61.6589 26.065 61.7019 26.1011 61.7381C26.1372 61.7743 26.1801 61.803 26.2273 61.8226C26.2745 61.8422 26.325 61.8523 26.3761 61.8523H28.2134C28.8803 61.8988 29.5424 61.7103 30.0855 61.3194C30.3011 61.1334 30.4711 60.9001 30.5823 60.6376C30.6934 60.3751 30.7427 60.0904 30.7264 59.8057C30.7439 59.5183 30.6951 59.2308 30.584 58.9654C30.4729 58.7 30.3023 58.4637 30.0855 58.275C29.5424 57.8842 28.8803 57.6957 28.2134 57.7421V57.7421Z" fill="white"/>
<path d="M28.8409 74.1571C28.9442 73.9694 28.9984 73.7585 28.9984 73.5441C28.9984 73.3297 28.9442 73.1188 28.8409 72.9311C28.7387 72.7512 28.5897 72.6025 28.4099 72.5008C28.2217 72.3952 28.009 72.3413 27.7933 72.3446C27.5767 72.3418 27.3631 72.3957 27.1735 72.5008C26.9917 72.6014 26.841 72.7502 26.7381 72.9311C26.6341 73.1186 26.5796 73.3296 26.5796 73.5441C26.5796 73.7586 26.6341 73.9696 26.7381 74.1571C26.841 74.338 26.9916 74.4869 27.1735 74.5874C27.363 74.6927 27.5767 74.7466 27.7933 74.7436C28.009 74.7471 28.2217 74.6932 28.4099 74.5874C28.5898 74.4858 28.7387 74.337 28.8409 74.1571V74.1571Z" fill="white"/>
<path d="M50.4772 49.2932C51.0568 49.6095 51.7062 49.7752 52.3661 49.7752C53.026 49.7752 53.6754 49.6095 54.255 49.2932C54.8121 48.9768 55.2705 48.5111 55.5788 47.9484C55.8948 47.343 56.0599 46.6698 56.0599 45.9865C56.0599 45.3032 55.8948 44.63 55.5788 44.0246C55.2706 43.4619 54.8122 42.9964 54.255 42.6802C53.6754 42.3638 53.026 42.1981 52.3661 42.1981C51.7062 42.1981 51.0568 42.3638 50.4772 42.6802C49.9197 42.9962 49.461 43.4617 49.1527 44.0246C48.8372 44.6301 48.6724 45.3032 48.6724 45.9865C48.6724 46.6697 48.8372 47.3428 49.1527 47.9484C49.4611 48.5113 49.9197 48.9769 50.4772 49.2932V49.2932Z" fill="white"/>
<path d="M67.5746 44.0794C67.6347 44.1423 67.7139 44.1835 67.7997 44.1968C67.8856 44.2101 67.9735 44.1947 68.0498 44.153C68.3933 43.9733 68.7093 43.745 68.988 43.4751C69.1983 43.267 69.3192 42.9848 69.325 42.6885C69.3299 42.555 69.3053 42.4221 69.2528 42.2993C69.2004 42.1765 69.1214 42.0668 69.0217 41.9783C68.7784 41.784 68.4717 41.6874 68.1613 41.7074C67.8225 41.689 67.489 41.7975 67.2256 42.012C67.1137 42.1077 67.0246 42.2272 66.9648 42.3618C66.905 42.4964 66.8759 42.6428 66.8797 42.7901C66.8792 43.0256 66.9434 43.2567 67.0654 43.4579C67.2116 43.6833 67.3824 43.8918 67.5746 44.0794V44.0794Z" fill="white"/>
<path d="M50.2353 73.0268C50.2275 73.393 50.1927 73.7582 50.131 74.1192C50.1072 74.3413 50.0145 74.5503 49.8662 74.7169H51.6228V72.3715H50.257L50.2353 73.0268Z" fill="white"/>
<path d="M72.8149 73.9678H74.1579L73.4869 72.4381L72.8149 73.9678Z" fill="white"/>
<path d="M55.1467 72.5008C54.9584 72.3952 54.7457 72.3413 54.53 72.3446C54.3134 72.3419 54.0998 72.3957 53.9102 72.5008C53.7284 72.6014 53.5778 72.7502 53.4749 72.9311C53.3709 73.1186 53.3164 73.3296 53.3164 73.5441C53.3164 73.7586 53.3709 73.9696 53.4749 74.1571C53.5777 74.338 53.7284 74.4869 53.9102 74.5874C54.0997 74.6927 54.3133 74.7465 54.53 74.7436C54.7457 74.7471 54.9585 74.6932 55.1467 74.5874C55.3266 74.4857 55.4755 74.337 55.5777 74.1571C55.6809 73.9694 55.735 73.7585 55.735 73.5441C55.735 73.3297 55.6809 73.1188 55.5777 72.9311C55.4755 72.7512 55.3265 72.6025 55.1467 72.5008V72.5008Z" fill="white"/>
<path d="M69.0005 59.0685C68.9711 58.9973 68.9213 58.9364 68.8573 58.8936C68.7934 58.8507 68.7182 58.8279 68.6413 58.8279C68.5644 58.8279 68.4893 58.8507 68.4253 58.8936C68.3614 58.9364 68.3115 58.9973 68.2821 59.0685L66.992 62.1925C66.9676 62.2517 66.958 62.3161 66.9643 62.3799C66.9705 62.4437 66.9924 62.505 67.0279 62.5583C67.0634 62.6116 67.1115 62.6553 67.1679 62.6855C67.2243 62.7157 67.2872 62.7315 67.3512 62.7315H69.9316C69.9955 62.7315 70.0584 62.7157 70.1148 62.6855C70.1712 62.6553 70.2193 62.6116 70.2548 62.5583C70.2904 62.505 70.3122 62.4437 70.3185 62.3799C70.3248 62.3161 70.3153 62.2518 70.2909 62.1925L69.0005 59.0685Z" fill="white"/>
<path d="M45.6599 73.9678L44.9889 72.4381L44.3169 73.9678H45.6599Z" fill="white"/>
<path d="M99.1399 50.8184C99.1148 50.4674 99.0477 50.3243 99.0309 49.9741C99.0226 49.8132 99.0628 49.6831 99.0539 49.4072C99.036 48.8862 98.9405 48.361 98.8839 47.8654C98.7999 47.1264 98.7211 46.4587 98.6312 45.7706C98.5412 45.0826 98.4405 44.3738 98.2964 43.5578C98.056 42.1947 97.6587 40.9359 97.3897 39.7612C97.2456 39.1375 97.0777 38.6853 96.8755 38.0308C96.4917 36.6517 96.0254 35.2969 95.4791 33.974C95.2962 33.5711 95.0903 33.2768 94.8955 32.8727C94.2836 31.6111 93.8613 30.5566 93.2892 29.5258C92.7706 28.6155 92.2043 27.7334 91.5924 26.8833C90.9938 26.0351 90.378 25.2003 89.7679 24.316C89.5274 24.0781 89.21 23.7414 88.8937 23.394C88.5777 23.0462 88.2636 22.6871 88.0384 22.3933C87.5053 21.9767 86.8546 21.3404 86.2538 20.8615C85.7081 20.4249 85.21 20.1185 84.9153 20.1899C84.7314 20.0047 84.5495 19.8225 84.3637 19.6389C83.9655 19.2455 83.5497 18.8442 83.0527 18.3963C82.222 17.6477 81.3376 17.0429 80.5802 16.4282C80.1776 16.1029 79.8429 15.8978 79.3859 15.5814C79.1303 15.404 78.8673 15.2194 78.6005 15.0348C78.4 14.8266 78.055 14.6165 77.9519 14.4996C77.8822 14.4207 77.8697 14.3884 77.8792 14.3783C77.8498 14.3652 77.8103 14.3465 77.7575 14.3198C77.4863 14.1867 77.8521 14.231 77.2556 13.8895L77.2604 13.9049C77.1681 13.8331 77.079 13.766 76.9803 13.7018C76.9151 13.659 76.8541 13.6396 76.8447 13.6581C76.8348 13.6764 76.8779 13.7246 76.9413 13.7666L76.9446 13.7689C76.991 13.7986 77.0366 13.8311 77.0828 13.8663L76.7194 13.7431C76.8207 13.6323 76.5508 13.6323 76.3896 13.5278C76.8398 13.7094 76.3586 13.3664 76.6169 13.4233C75.8907 13.0112 75.2781 12.4728 75.2128 12.1783C75.6438 12.4631 76.0998 12.7079 76.5751 12.9097C76.8384 13.0668 77.0871 13.2391 77.3454 13.4241C77.5314 13.5575 77.7204 13.6944 77.9174 13.8317C78.0595 13.9299 78.206 14.0284 78.3596 14.125C78.4607 14.1889 78.541 14.2079 78.5387 14.1673C78.5369 14.1274 78.4531 14.0427 78.3517 13.9785C78.0436 13.7855 77.7584 13.5753 77.4538 13.3567C77.1769 13.1578 76.8868 12.9562 76.5675 12.7681L76.573 12.7667C76.3737 12.662 76.1951 12.5218 76.0458 12.353C76.2022 12.3846 76.4541 12.5209 76.4814 12.417L76.4668 12.4061C76.5174 12.4295 76.562 12.4488 76.6091 12.4689C76.6653 12.493 76.6917 12.4853 76.6686 12.4515C76.6291 12.4063 76.5798 12.3709 76.5244 12.348C76.4777 12.3286 76.4373 12.3106 76.389 12.2882L76.4059 12.2864C75.7521 11.8219 75.0695 11.3994 74.3624 11.0215C73.5946 10.5919 72.8132 10.1761 72.2486 9.78909C71.0526 9.35644 69.8452 8.74772 68.5943 8.20283C67.3785 7.63127 66.0915 7.22642 64.7679 6.99919C64.3948 6.78492 63.9924 6.62671 63.5735 6.52965C63.0626 6.39808 62.5451 6.29368 62.0232 6.21688C61.4312 5.95898 60.786 5.84803 60.1422 5.89344L60.0076 5.8709L60.0144 5.87994C59.8762 5.85096 59.7359 5.82501 59.5955 5.80352C58.8779 5.60859 57.9929 5.66543 56.9073 5.49929C56.6182 5.45718 56.3269 5.43271 56.0348 5.42601C55.901 5.42079 55.7748 5.41603 55.6515 5.40937L55.6693 5.3952C55.2321 5.38684 54.6876 5.34999 54.182 5.33629C53.7978 5.31637 53.4126 5.32804 53.0303 5.37118C52.9559 5.37619 52.8871 5.38058 52.7961 5.38228C52.7096 5.34791 52.6131 5.34884 52.5273 5.38487L52.3706 5.38467C51.7811 5.33779 50.8452 5.40802 50.8875 5.20276L50.8772 5.20141C50.9985 5.1862 51.1183 5.16019 51.235 5.12369C51.3152 5.09438 51.3997 5.07876 51.485 5.07749C51.584 5.07842 51.6791 5.05868 51.6917 5.03274C51.7037 5.00669 51.6308 4.98483 51.5288 4.98349C51.3375 4.97972 51.1468 5.00789 50.9647 5.06685C50.8898 5.09236 50.8125 5.10991 50.734 5.1192L50.7503 5.10354C50.0462 5.1995 49.4299 5.26245 48.8006 5.32002C48.1719 5.37753 47.5297 5.42916 46.7787 5.51727L46.7489 5.52874C46.7421 5.52761 46.7355 5.52668 46.7277 5.52611C46.6551 5.5192 46.5831 5.50736 46.5122 5.49066C46.4143 5.47732 46.3148 5.48563 46.2205 5.515C46.1276 5.54404 46.1079 5.57991 46.1757 5.5951C46.2489 5.61143 46.3258 5.62419 46.3951 5.63262L46.376 5.63711C46.3875 5.68006 46.555 5.66259 46.5214 5.72321C46.1669 5.80398 45.6919 5.87385 45.1676 5.94894C44.8881 6.01302 44.7392 6.09085 44.5045 6.16185C43.9715 6.22211 43.1216 6.41228 42.3571 6.56835C41.5925 6.72271 40.9101 6.8392 40.6912 6.69011C41.4328 6.54773 41.9003 6.29167 42.8366 6.16041C42.9474 5.99638 42.4145 6.14247 42.5243 5.97907C42.9689 5.84896 43.4216 5.74791 43.8793 5.67654C44.0561 5.57334 44.2275 5.46117 44.3928 5.34048C43.6616 5.42001 42.9351 5.53793 42.2162 5.69375C41.5072 5.84383 40.747 6.02129 39.7376 6.26552C39.7325 6.21782 39.6565 6.20919 39.5784 6.20185C39.0175 6.3619 38.6579 6.4714 38.2983 6.5807C37.9391 6.69135 37.5796 6.80111 37.0244 6.98302C36.7594 7.19687 36.4723 7.38171 36.1681 7.53437L36.1751 7.53551C36.0615 7.56744 35.9489 7.60687 35.8393 7.64594C35.7118 7.69178 35.5908 7.73493 35.4793 7.76382L35.4991 7.7431C34.7886 7.98562 34.2354 8.23513 33.7265 8.45295C33.2388 8.67416 32.7342 8.85583 32.2175 8.99624C31.545 9.4416 30.61 9.73606 29.6728 10.2137C28.2506 10.9562 26.8921 11.8154 25.6112 12.7825C25.4524 13.0051 25.3488 13.2084 25.1939 13.4327C25.6869 13.2992 25.6943 13.3784 25.7645 13.5411C26.6598 12.8703 27.7148 12.1552 27.7769 12.5836C27.3792 12.8201 27.0049 13.0943 26.6594 13.4024C26.1569 13.6836 25.7676 13.8382 25.3761 14.0175C24.9177 14.22 24.4873 14.4811 24.0955 14.7941C23.9589 14.8259 23.8253 14.8694 23.6961 14.9241C23.6808 14.9143 23.6677 14.9015 23.6577 14.8863C23.6415 14.8596 23.6163 14.8397 23.5866 14.8301L23.6002 14.8213L23.543 14.7426C23.5763 14.7139 23.6112 14.6844 23.6473 14.654C23.7915 14.5373 23.9289 14.4126 24.0592 14.2805C24.1332 14.2015 24.1266 14.1603 24.0442 14.1883C23.9372 14.2327 23.8406 14.2989 23.7605 14.3829C23.6724 14.4711 23.5796 14.5546 23.4826 14.6329C23.4053 14.6982 23.3257 14.7668 23.2463 14.8401C22.9675 15.0575 22.9389 14.9707 22.7477 15.0835C22.6194 15.238 22.7764 15.2647 22.6496 15.4191C23.0123 15.1185 23.0429 15.2375 23.2729 15.1078C23.289 15.1174 23.3029 15.1304 23.3135 15.1459C23.3295 15.1713 23.3535 15.1906 23.3818 15.2006L23.3665 15.2105C23.3724 15.2321 23.3739 15.2555 23.2761 15.3223C22.6979 15.7788 22.4676 15.8141 22.3403 15.7064L22.3158 15.723C22.3463 15.6884 22.3735 15.651 22.397 15.6113L22.4086 15.5925C22.4361 15.5493 22.4092 15.5414 22.3485 15.5747C22.2861 15.6091 22.2317 15.6563 22.1888 15.7132L22.1737 15.7383C22.167 15.7491 22.1614 15.7584 22.1539 15.7691C21.659 16.179 21.1412 16.5603 20.6031 16.9112C20.1257 17.2128 19.6785 17.5602 19.2679 17.9483C19.1687 18.0723 19.3642 18.0124 19.0523 18.3374C18.7638 18.5047 18.4876 18.6924 18.2257 18.8991C17.8805 19.3032 17.3282 19.8525 16.7819 20.4413C16.2592 20.9833 15.7813 21.5669 15.3527 22.1864C15.2806 22.3308 15.3382 22.3816 15.4107 22.421C15.388 22.4561 15.3496 22.5053 15.2835 22.587C15.1826 22.7031 15.0949 22.8302 15.0219 22.9658C14.9972 23.0192 15.0173 23.0313 15.0666 22.9933C15.0934 22.9716 15.1178 22.9471 15.1394 22.9203C15.1634 22.8923 15.184 22.8615 15.2007 22.8287C15.2453 22.7522 15.2973 22.6803 15.356 22.614C15.4573 22.4985 15.545 22.3717 15.6174 22.2361L15.6253 22.2342C16.0802 21.704 16.5462 21.183 17.0232 20.6712C17.1708 20.5871 17.1962 20.6118 17.1228 20.7641C17.8026 20.0231 18.4511 19.4159 18.65 19.5327C19.0646 19.2178 19.3218 18.7882 19.5952 18.7151C19.1054 19.2882 19.7025 18.8556 19.7272 19.0586C19.4605 19.3109 19.1969 19.5661 18.9363 19.8244C18.8958 19.8273 18.8862 19.7789 18.7907 19.8731L18.7467 19.9249C18.7585 19.8945 18.7667 19.8628 18.7709 19.8305C18.7736 19.8111 18.7469 19.8205 18.7111 19.8508C18.6806 19.8739 18.6566 19.9046 18.6415 19.9399L18.6374 19.964C17.9181 20.452 17.2862 21.0582 16.7683 21.7572C16.8002 21.9051 17.2405 21.2976 17.3331 21.3385C17.2515 21.6866 17.6234 21.4915 17.2786 21.9992L17.2579 22.0206C17.219 22.062 17.1813 22.1016 17.1441 22.1396C16.7436 22.3887 16.1967 22.9409 15.7773 23.2678C15.7575 23.1538 15.7643 23.0367 15.7972 22.9259C15.5174 23.2311 15.2543 23.5514 15.0091 23.8853C14.9533 23.9417 15.11 23.6441 14.9558 23.8426C14.9044 23.9089 14.8153 24.163 14.6938 24.3385C14.4907 24.6317 14.2186 24.8786 13.9423 25.3237L13.9424 25.3255C13.8504 25.3953 13.7676 25.4766 13.6961 25.5674C13.6546 25.6174 13.6106 25.6652 13.5643 25.7107C13.5195 25.7531 13.4838 25.8043 13.4595 25.8611C13.4432 25.9069 13.4632 25.9137 13.5042 25.8763C13.5727 25.8111 13.6373 25.7419 13.6975 25.6689C13.7392 25.6113 13.7896 25.5606 13.8469 25.5186L13.8064 25.5651C13.5804 26.0429 13.3253 26.5062 13.0423 26.9525C12.7197 27.4844 12.3879 28.0104 12.1881 28.2831C12.2758 28.1734 12.0688 28.7275 12.0699 28.8529C11.4058 29.7429 10.8195 30.6886 10.3177 31.6797C9.7771 32.7118 9.27788 33.7973 8.78181 34.8381C8.63298 35.1936 8.86237 35.0557 8.63716 35.516C8.22547 36.1252 7.88952 36.7825 7.63677 37.4734C7.43333 38.4573 7.17044 39.4279 6.84953 40.3798C6.51324 41.4095 6.25584 42.4635 6.07955 43.5324C6.16304 43.6698 6.39742 42.9215 6.37608 43.3161C6.24034 43.7082 6.12949 43.7891 6.04987 43.6644C5.8848 44.2474 5.75122 44.839 5.64971 45.4365C5.53169 46.0899 5.43135 46.7729 5.33648 47.3863C5.26149 47.4186 5.20764 47.6449 5.14482 47.7745C4.99494 48.5292 4.9207 49.297 4.92322 50.0665C4.91281 50.8237 4.93193 51.6 4.90209 52.4911L4.9022 52.491V52.4913L4.90209 52.4911C4.84881 52.5615 4.80912 52.6909 4.7564 52.7616C4.80253 53.4803 4.617 54.4394 4.79583 55.1865C4.77934 55.9448 4.67812 56.5367 4.69915 57.3579C4.72801 58.0247 4.80121 58.6887 4.91827 59.3457C5.02784 60.018 5.15636 60.6924 5.24469 61.3582C5.35513 62.1842 5.359 62.8751 5.46614 63.6514C5.51911 64.0305 5.58812 63.9801 5.6463 64.2999C5.69679 65.0764 5.85049 65.8426 6.10331 66.5783C6.32832 67.266 6.58782 67.9418 6.88081 68.6031C6.88858 68.63 6.89844 68.6562 6.91029 68.6815C6.97561 68.8289 7.03269 68.9798 7.08128 69.1336C7.11065 69.22 7.14013 69.3052 7.17167 69.3885C7.19955 69.4621 7.23624 69.5121 7.25376 69.4997C7.27103 69.4872 7.26278 69.4183 7.2348 69.3441C7.2062 69.269 7.18002 69.1929 7.15425 69.116L7.10251 68.9664C7.06618 68.8609 7.02758 68.7551 6.98362 68.6516L6.99321 68.6582C6.88668 68.147 6.80016 67.7505 6.68225 67.2904C6.56501 66.8305 6.4138 66.3076 6.20226 65.5371C6.25466 65.2645 6.2332 64.9828 6.14011 64.7213C6.16618 64.9873 5.92439 64.3692 5.85254 64.1069C5.74252 63.3201 5.6663 62.6065 5.56173 61.5675C5.47845 61.6261 5.42677 61.3101 5.37297 61.06C5.18332 59.564 5.07628 58.188 5.0179 56.8204C4.96115 55.454 4.9528 54.0952 5.00171 52.6284L5.01743 52.4904V52.4891C5.06778 52.0314 5.0939 51.5101 5.14956 51.0672C5.20975 50.5799 5.30432 50.1899 5.48583 50.0915C5.52478 50.38 5.43542 51.0677 5.42326 51.557C5.21191 52.1658 5.12345 52.8107 5.16301 53.4541C5.16445 54.2132 5.22568 55.0455 5.23397 55.8012C5.22635 55.8077 5.21867 55.8139 5.21068 55.8198C5.18418 55.8715 5.1759 55.9305 5.18718 55.9875C5.19419 56.0657 5.21589 56.1173 5.23562 56.1029C5.25284 56.0906 5.26851 56.0762 5.28227 56.0601L5.28103 56.0903C5.39091 56.3766 5.44428 56.6816 5.43815 56.9883C5.46887 57.3085 5.45909 57.6313 5.40904 57.9491C5.33297 58.0013 5.27464 57.9443 5.22501 57.8374C5.27665 58.6762 5.34596 59.293 5.40945 59.8571C5.47418 60.4214 5.53442 60.9328 5.59569 61.5607C5.67114 61.4735 5.68552 61.3623 5.78864 61.657C5.90588 62.1967 5.96762 62.6151 6.03822 63.0148C6.10604 63.4352 6.21058 63.8487 6.35062 64.2507C6.3306 64.6224 6.38443 64.9944 6.50899 65.345C6.60699 65.7202 6.74409 66.084 6.91802 66.4304C6.6938 65.6173 6.96734 65.9514 7.11204 66.092C6.87179 64.7899 6.48786 63.6486 6.33892 62.3495L6.3213 62.3188C6.35395 62.0174 6.33747 61.7127 6.2725 61.4166L6.2778 61.4213C6.35109 61.1697 6.17716 60.8746 6.25544 60.6233C6.36871 61.0952 6.43267 60.8174 6.52084 60.9722C6.5284 61.024 6.54293 61.0746 6.56403 61.1224L6.56897 61.1773C6.59258 61.4222 6.61798 61.6757 6.67096 61.9476C6.69132 62.054 6.73105 62.1316 6.75836 62.1214C6.78583 62.111 6.78784 62.0071 6.77037 61.9117C6.72858 61.6945 6.70755 61.4917 6.68441 61.2548L6.67797 61.1904C6.67648 61.1741 6.67447 61.1578 6.67164 61.1415C6.66627 61.1067 6.65784 61.0725 6.64643 61.0392C6.67388 60.8332 6.67385 60.6245 6.64633 60.4185C6.48979 59.9282 6.39982 59.419 6.37886 58.9047C6.34794 58.41 6.35021 57.9261 6.30594 57.4441C6.17536 57.5823 6.17298 58.0705 6.06579 58.2642C6.16201 58.9201 6.14521 59.0367 6.2473 59.561C6.06265 59.1023 6.31687 60.1084 6.16159 59.9737C6.03038 59.4404 5.95548 58.8947 5.93814 58.3456C5.93738 57.8832 5.87393 57.4231 5.74953 56.9778C5.76515 56.742 5.8075 56.5857 5.81266 56.3102C5.67959 55.9878 5.63665 55.6351 5.68846 55.29C5.71598 54.8722 5.80127 54.4882 5.88867 54.4604C5.88229 52.3511 6.03491 50.2444 6.34521 48.1583C6.31946 47.8936 6.32053 47.627 6.34841 47.3625C6.48972 46.8492 6.55203 46.3173 6.53316 45.7851C6.73151 45.8795 6.81845 46.2348 6.91415 46.5497C7.00934 46.8652 7.11359 47.14 7.32922 47.0809C7.3514 47.2969 7.34322 47.515 7.30494 47.7288C7.13493 48.2342 6.99614 48.1234 6.86916 48.4511C6.85959 48.4552 6.8498 48.4588 6.83984 48.4618C6.80959 48.4716 6.77692 48.5663 6.76707 48.678C6.7577 48.788 6.77522 48.869 6.80563 48.8589C6.82293 48.8536 6.83967 48.8466 6.85561 48.838L6.8518 48.8583C6.97357 49.0155 6.80753 49.2903 6.72847 49.3708C6.77641 49.8466 6.79417 50.325 6.78166 50.803C6.6941 50.9225 6.66972 50.8077 6.53146 50.9246C6.52669 50.533 6.55716 50.1418 6.62252 49.7557C6.53914 49.7925 6.49172 49.7274 6.46235 49.6153L6.45137 49.6516C6.45127 49.5788 6.4523 49.5119 6.45421 49.4404C6.45704 49.3479 6.43782 49.291 6.41087 49.3131C6.37267 49.3756 6.35417 49.4482 6.35779 49.5214C6.35542 49.5991 6.3547 49.6719 6.35485 49.7494L6.34702 49.74C6.21435 50.909 6.16484 52.0859 6.19885 53.262C6.19726 53.3262 6.19148 53.3893 6.18303 53.4748L6.16891 53.5066C6.15341 53.5483 6.14859 53.5932 6.1549 53.6372C6.16031 53.6871 6.17572 53.7091 6.18891 53.687L6.22405 53.6279L6.23261 53.5347C6.24132 53.4367 6.2506 53.3469 6.25163 53.2449C6.25193 53.2033 6.2507 53.1578 6.24843 53.1105L6.27002 53.138C6.4103 52.5922 6.45771 52.1104 6.63901 51.4473C6.70544 52.1397 6.75182 52.9551 6.85304 53.6417C6.83273 53.6493 6.81351 53.662 6.81789 53.7605C6.80078 53.8158 6.78884 53.8726 6.78222 53.9301C6.77639 53.9656 6.77966 54.002 6.79171 54.036C6.80222 54.0556 6.8151 54.0395 6.82006 54.0007C6.82451 53.9523 6.83548 53.9047 6.85267 53.8593L6.85293 53.899L7.02562 53.8927C7.06525 54.2175 7.11498 54.5138 7.17481 54.7817C7.28675 54.851 7.2767 54.5368 7.34777 54.7721C7.47887 55.3292 7.48443 56.2793 7.55261 56.9187C7.49027 57.1503 7.40306 57.3744 7.29252 57.5871C7.08615 56.887 7.0174 56.1534 7.0901 55.4271C6.81577 55.341 6.85314 55.1128 6.65937 54.9403C6.59767 55.3929 6.59001 55.8512 6.63654 56.3056C6.67648 56.751 6.74924 57.213 6.82155 57.7739C6.77007 57.8964 6.82685 58.3009 6.68544 58.1818C6.72755 58.6906 6.87189 58.5544 6.92034 59.0605C6.94089 59.6196 7.01771 60.1751 7.14961 60.7187C7.12917 61.2374 7.18787 61.7562 7.3237 62.2571C7.46507 62.8028 7.54541 63.3626 7.56323 63.9262C7.67712 63.848 7.77684 64.2001 7.88259 64.5054C7.87883 64.9148 7.96649 65.4734 8.01333 65.9436C8.22489 65.9719 8.44524 66.4854 8.67565 66.9416C8.75079 66.8778 8.71859 66.6044 8.669 66.321C8.61886 66.0376 8.55223 65.7435 8.54455 65.6416C8.89622 65.8876 8.95337 66.6418 9.3086 67.6472C9.32736 67.795 9.34452 67.9396 9.36127 68.0793C9.39074 68.3256 9.42326 68.5797 9.47645 68.8546L9.463 68.8267C9.37173 68.9459 9.23429 68.4987 9.1375 68.5433C9.23488 68.8178 9.27262 69.11 9.2482 69.4003C9.22305 69.6899 9.26539 69.9815 9.37188 70.2519C9.63605 70.3244 9.66712 71.0102 9.88125 71.2939C9.98179 71.2016 9.92181 70.9097 9.85368 70.6C9.77074 70.3443 9.73897 70.0746 9.76019 69.8066C9.90057 69.9044 10.0805 70.3143 10.2314 70.4721C10.2416 70.4941 10.2531 70.5155 10.2657 70.5362C10.3202 70.6233 10.4121 70.7796 10.4822 70.8988L10.4939 71.0831C10.5051 71.3834 10.5497 71.6815 10.6271 71.9718C10.6042 72.1141 10.6086 72.2595 10.6399 72.4002C10.6385 72.4077 10.6386 72.4153 10.6401 72.4227C10.6491 72.4773 10.638 72.4739 10.5875 72.4346C10.5463 72.4027 10.4898 72.359 10.4843 72.4456C10.4899 72.4914 10.5004 72.5365 10.5154 72.5801L10.5299 72.6254C10.5415 72.665 10.5629 72.701 10.592 72.7302C10.6126 72.7446 10.6179 72.7213 10.6041 72.6776L10.5897 72.6335C10.5805 72.6039 10.5747 72.5846 10.5728 72.5738C10.5749 72.5466 10.5931 72.5577 10.6344 72.5892C10.6753 72.6206 10.7338 72.6652 10.732 72.5766L10.738 72.5893C10.957 72.9083 10.913 72.6593 11.0118 72.5935L10.8484 72.2485L10.8397 72.2386C10.8369 72.2239 10.8333 72.2094 10.8289 72.1951C10.7497 71.9248 10.7046 71.6456 10.6944 71.3641L10.6767 71.1237L10.6736 71.0851L10.6571 71.0334C10.6303 70.9492 10.6019 70.8783 10.5829 70.8319L10.5632 70.7841L10.5394 70.7428C10.4826 70.6442 10.3687 70.4485 10.2894 70.3183C10.1888 69.9781 10.0402 69.654 9.84806 69.356C9.91299 69.4954 9.91264 69.8036 9.79669 69.5148C9.64903 69.3136 9.73262 69.2923 9.57209 68.92L9.57055 68.9246C9.52288 68.6775 9.49283 68.4481 9.46336 68.2075C9.44372 68.0501 9.4245 67.8872 9.40172 67.7169L9.41899 67.7557C9.5825 67.7958 9.71309 68.1599 9.84012 68.5641C9.93301 68.9245 10.0572 69.2761 10.2114 69.6148C10.1583 69.4701 10.1129 69.3323 10.1843 69.3527C10.3505 69.8288 10.5627 70.2875 10.8177 70.7223C10.9929 71.2912 11.099 71.7581 11.1975 72.2108C11.2919 72.6803 11.4099 73.1446 11.5511 73.6021C11.7096 73.8663 11.7228 73.4417 11.9107 73.8387C12.4143 74.7373 12.7575 75.4105 12.6184 75.6251C12.0685 75.2579 11.6234 74.7534 11.327 74.1613C11.5695 74.7708 11.2609 74.2611 11.1413 74.4115C11.6858 75.2029 12.2661 75.96 12.6273 75.9178C12.956 76.4351 13.2259 76.7133 13.5462 77.141C13.6874 77.3794 13.6215 77.4337 13.6892 77.6049C13.6444 77.6327 13.6113 77.631 13.5594 77.5624C13.5252 77.5173 13.4936 77.4968 13.488 77.5172C13.4923 77.5612 13.5105 77.6026 13.5399 77.6354C13.6877 77.8309 13.7572 77.8103 13.8019 77.7821C14.1905 78.2468 14.5286 78.6247 14.5633 78.2842C14.8769 78.5732 15.1484 78.905 15.3698 79.2698C15.5455 79.5237 15.6851 79.801 15.7845 80.0936C15.7779 80.0972 15.7747 80.1059 15.7773 80.121C15.7904 80.1976 15.731 80.1948 15.6678 80.1913L15.6474 80.1905L15.6388 80.1677C15.4414 80.0047 15.2758 79.8064 15.1505 79.5828C15.0829 79.7028 15.1883 79.9565 15.34 80.2416L15.353 80.2444C15.3617 80.2984 15.3751 80.3514 15.3931 80.4031C15.4162 80.4574 15.4516 80.5056 15.4965 80.5438C15.5384 80.5779 15.5599 80.5707 15.5447 80.5275C15.5307 80.4875 15.52 80.4462 15.5129 80.4043L15.5239 80.4216C15.765 80.8739 15.5835 80.2918 15.8455 80.4897L15.8074 80.4464C15.8185 80.4464 15.8297 80.4467 15.8414 80.4473C15.9042 80.4502 15.9735 80.4529 15.9843 80.3803C16.3137 80.6415 16.5752 80.9789 16.7463 81.3634C16.7377 81.3725 16.728 81.3805 16.7176 81.3873C16.6973 81.3979 16.6811 81.4151 16.6718 81.4361C16.6625 81.4571 16.6606 81.4806 16.6664 81.5029L16.6465 81.4743L16.5931 81.5201C16.8946 81.9891 17.1673 82.4761 17.4098 82.9783C17.3787 82.9892 17.3447 82.9878 17.3145 82.9745C17.2889 82.9674 17.2926 82.9959 17.3223 83.038C17.3471 83.0762 17.3818 83.107 17.4227 83.127C17.4819 83.1434 17.5452 83.1543 17.5676 83.1005L17.6189 83.168C17.657 83.0031 18.0167 83.2615 18.187 83.1587C18.0482 82.9163 17.7272 82.5539 17.8283 82.4563C18.1735 82.7195 18.5634 83.0571 18.9883 83.4373C19.3713 83.9222 19.6714 84.4676 19.8763 85.0511C19.8345 85.0311 19.7908 85.0156 19.7457 85.005C19.7343 85.0018 19.7224 84.9987 19.7104 84.9949C19.5657 84.857 19.4217 84.7186 19.2789 84.5782C19.1614 84.8001 18.8166 84.5242 18.2838 84.1281C18.2675 84.2397 18.2776 84.3536 18.3132 84.4606C18.7901 84.9749 19.029 84.9562 19.3727 85.4039C19.9702 85.6768 20.5411 86.0047 21.0781 86.3835C21.4093 86.4006 21.7332 86.487 22.0291 86.6371C22.4595 86.9782 22.5657 87.1686 22.5792 87.3223C22.5928 87.4753 22.5133 87.5895 22.5828 87.7661C22.3576 87.6896 22.0654 87.5176 21.851 87.4496L21.8792 87.4775C21.8127 87.4345 21.7493 87.3916 21.6739 87.3347C21.6268 87.2993 21.5866 87.2858 21.584 87.3044C21.5811 87.3228 21.6174 87.3669 21.6634 87.4019C21.7652 87.4776 21.8461 87.5318 21.93 87.5852L21.9059 87.5854C22.3406 88.0001 22.8001 88.3877 23.2821 88.7461L23.2787 88.7322C23.4276 88.8596 23.5831 88.9792 23.7445 89.0904L23.9515 89.2387C23.9693 89.2518 23.988 89.2635 24.0076 89.2736L24.009 89.2768C24.0457 89.4232 24.1292 89.5535 24.2466 89.6479C24.3641 89.7422 24.5091 89.7955 24.6596 89.7995C25.0846 89.8443 25.4925 89.9912 25.8489 90.2276C26.0959 90.4128 26.3137 90.6342 26.4949 90.8843C26.2949 90.7905 26.0865 90.7157 25.8725 90.6607C26.4471 91.0794 27.0437 91.4668 27.6596 91.8215C28.2193 92.1536 28.7794 92.4847 29.4821 92.9553C29.4267 93.035 29.6431 93.1152 29.4167 93.0799C29.7886 93.2384 30.021 93.3168 30.2676 93.4163C30.5145 93.5148 30.7761 93.6333 31.2143 93.8582L31.2104 93.8477C31.3304 93.9083 31.4531 93.9662 31.5778 94.0203C31.988 94.2576 32.4235 94.4479 32.8762 94.5874C33.3627 94.7514 33.8635 94.8878 34.2643 95.0152C34.5862 95.2981 35.3362 95.393 35.7005 95.6522C35.6711 95.7554 35.3926 95.6962 35.2565 95.7291C35.1319 95.694 35.0038 95.6452 34.8709 95.5933C34.7768 95.5568 34.6792 95.5183 34.5788 95.4827L34.5766 95.4819C34.5133 95.4599 34.4566 95.4551 34.4492 95.4715C34.4416 95.488 34.4872 95.5198 34.5512 95.5427C34.6357 95.5724 34.721 95.6064 34.8119 95.6416C34.9953 95.7175 35.1839 95.7802 35.3762 95.8292L35.3577 95.836C35.6682 95.9885 35.9913 96.1138 36.3234 96.2106C36.3738 96.2378 36.4294 96.2638 36.4818 96.2881C36.551 96.3158 36.6171 96.3509 36.6788 96.3927C36.6553 96.4217 36.6617 96.4633 36.696 96.5056L36.6684 96.4976C35.5996 96.239 34.469 95.8889 33.4744 95.5844C33.7777 95.7012 33.4577 95.7026 33.3106 95.6353C32.4013 95.3081 31.5129 94.925 30.6505 94.4883C29.9344 94.119 29.1999 93.7866 28.45 93.4923C27.951 93.1329 27.4163 92.826 26.8546 92.5763C26.3473 92.3495 25.8299 92.1672 25.2163 91.9124C25.0646 91.7351 24.6047 91.4532 24.5129 91.2901C24.6715 91.3316 24.8806 91.4285 24.9431 91.3612C24.4384 91.0114 23.735 90.5541 23.1903 90.1233C22.6447 89.6933 22.2563 89.2964 22.3545 89.1053C21.5332 88.5199 21.5352 88.3221 21.5832 88.1856C21.1644 87.8053 20.7234 87.4501 20.2628 87.1219C20.4147 87.3953 20.6108 87.6415 20.843 87.8506C20.3658 87.5686 19.9312 87.2198 19.5521 86.8148C19.2148 86.4411 18.8208 86.123 18.3848 85.8721C18.2998 85.6972 17.6834 85.0927 18.04 85.2857C17.5078 84.6784 17.278 84.4434 16.9977 84.1048C16.9981 84.3239 16.6952 84.0502 16.3546 83.6527C16.0135 83.2557 15.6404 82.7334 15.4686 82.4814C15.116 82.1909 14.804 81.854 14.5411 81.4799C14.2504 81.0941 14.0052 80.7221 13.8647 80.567C13.6316 80.3083 13.6626 80.4697 13.4682 80.2061C13.2193 79.8412 12.9945 79.4604 12.7954 79.0659C12.5159 78.5824 11.986 77.8772 11.6518 77.2952C11.3767 76.8209 11.0711 76.2581 10.7912 75.6956C10.5114 75.133 10.2576 74.5708 10.0737 74.103C9.89223 73.8535 9.72521 73.5938 9.57348 73.325C9.41816 72.8976 9.21161 72.4144 9.0048 71.9278C8.79732 71.4414 8.58949 70.9515 8.42267 70.5179C8.28561 70.1878 8.18229 69.8445 8.11429 69.4935C8.07321 69.2459 8.06765 69.0359 8.0393 68.6885C8.27652 69.4668 8.20004 68.8371 8.43509 69.3765C8.75373 70.0246 8.74491 70.418 9.03449 70.5391C8.77584 69.8362 8.81222 69.5174 8.6269 68.8809C8.33176 68.3466 8.13566 67.7632 8.04812 67.1588C7.96432 67.283 7.86254 67.0225 7.76293 66.6959C7.6832 66.4361 7.60652 66.1351 7.53278 65.954C7.41259 65.5127 7.31421 65.0684 7.21821 64.5981L6.93271 63.1561L6.93162 63.1515C6.91482 63.0734 6.88499 63.0128 6.86365 63.0154C6.84185 63.0179 6.83701 63.0853 6.85339 63.1659L7.13168 64.5751C7.22655 65.0449 7.33339 65.5282 7.46263 65.9994L7.44511 65.9872C7.64842 66.6763 7.62007 66.9778 7.91001 67.7598C7.86591 67.9892 7.86959 68.2252 7.92083 68.4531C7.60446 67.9401 7.63136 67.2111 7.40352 66.9649L7.39801 66.9795C7.37327 66.8702 7.35307 66.7905 7.33421 66.7261L7.32819 66.7066C7.3054 66.6332 7.27206 66.5813 7.25376 66.5911C7.23511 66.6006 7.23614 66.6631 7.26155 66.7417C7.27103 66.7716 7.28324 66.8212 7.29814 66.8852C7.28438 67.0879 6.96136 66.8922 6.95481 66.5575C6.92894 66.8848 6.70879 66.9032 6.96533 67.6746C6.99918 67.1578 7.23217 68.0854 7.42975 68.6373C7.61676 68.7763 7.75155 68.9744 7.81229 69.1997C7.88614 69.5859 7.9922 70.009 8.06811 70.3817C8.41425 71.0038 8.66829 71.6731 8.82227 72.3685C9.33086 73.5707 9.84961 74.615 10.3909 75.6317C10.9337 76.648 11.4992 77.6368 12.1384 78.7171C12.2352 78.8634 12.2562 78.7832 12.3429 78.8983C13.0702 80.0598 13.8753 81.1706 14.7525 82.2228C15.0765 82.6418 15.2927 82.99 15.6377 83.3839C15.7335 83.494 15.9687 83.6597 16.0403 83.7343C16.3115 84.0264 16.5634 84.3359 16.7944 84.6609C17.0214 84.9435 17.4192 85.2466 17.5555 85.3984C17.9003 85.8603 18.2981 86.2799 18.7407 86.6487C18.7182 86.7273 18.952 86.9413 19.0587 87.0861L19.0606 87.0882C19.0568 87.0873 19.053 87.0868 19.0491 87.0866C18.9734 87.0866 19.0169 87.1851 19.0594 87.2805L19.0602 87.2825L18.9913 87.3585C18.577 87.0327 18.1965 86.666 17.8555 86.2638C17.5651 85.9128 17.2294 85.602 16.8573 85.3396C16.5535 85.0342 16.5108 84.8884 16.1495 84.5371C16.0733 84.4656 16.023 84.4427 16.0076 84.4866L16.0247 84.5149C15.7468 84.2966 15.5078 84.0328 15.3175 83.7346C15.2723 83.6571 15.2109 83.5904 15.1374 83.5391C15.0786 83.5039 15.0639 83.5351 15.1047 83.6089C15.3517 84.0064 15.6622 84.3606 16.0236 84.6572H16.0206C16.2468 84.9445 16.5869 85.2976 16.8732 85.6082C17.1591 85.9194 17.3899 86.19 17.3872 86.3261C18.1735 87.0668 18.7626 87.5652 19.3129 88.029L21.0522 89.4759L21.051 89.4673C21.0996 89.5102 21.1478 89.552 21.1995 89.5936C21.2871 89.6655 21.3788 89.7078 21.403 89.6884C21.4268 89.669 21.3744 89.5958 21.2862 89.5239C21.2605 89.5033 21.2341 89.4809 21.2069 89.4574C20.9422 89.1513 20.217 88.6201 20.446 88.529C20.2341 88.3922 20.0402 88.2293 19.8687 88.0442C19.7246 87.8902 19.5785 87.7163 19.2836 87.432L19.2775 87.4316L19.2718 87.4181C19.2399 87.3478 19.2202 87.3018 19.2347 87.2925C19.8667 87.6377 20.3981 88.1421 20.7765 88.756C20.8334 88.6165 21.3745 88.9522 21.8645 89.3382C22.3529 89.7259 22.7943 90.1684 22.6054 90.3051C22.7843 90.4364 22.9649 90.5659 23.1456 90.6947C23.3794 90.796 23.3856 90.6295 23.7929 90.9319C24.4325 91.3743 24.4988 91.6093 25.0078 91.9886L25.0109 91.9902C25.0129 91.9959 25.0154 92.0012 25.0186 92.0063L25.0339 92.0324C25.0764 92.1074 25.1324 92.1738 25.1989 92.2285L25.1764 92.2201C25.1466 92.2708 25.4813 92.4334 25.4801 92.4919C24.8607 92.0678 24.8644 92.3045 24.3634 91.9926L24.3754 92.0141C24.3265 91.9881 24.2491 91.9453 24.1679 91.896C24.1207 91.8673 24.0813 91.857 24.0796 91.8733C24.0782 91.8899 24.116 91.9271 24.1625 91.955C24.2215 91.9908 24.2795 92.0242 24.329 92.0515L24.3242 92.051C25.1618 92.7391 26.06 93.3492 27.008 93.8738C27.2713 94.142 27.2338 94.1168 27.5006 94.383C28.5346 94.9101 29.504 95.4956 30.5013 96.0364C31.4952 96.6004 32.546 97.0568 33.6361 97.3981C34.0483 97.5478 33.976 97.6549 34.3688 97.7983C34.8961 97.969 35.435 98.1013 35.9813 98.1943C35.6655 98.0811 35.3125 97.9609 35.3668 97.8622C35.9783 97.9057 35.4522 97.4964 36.2844 97.6989C36.6342 97.8708 36.9974 98.0137 37.3704 98.1261C37.7035 98.2154 38.0228 98.3505 38.319 98.5275C38.8662 98.656 39.3694 98.7712 39.3561 98.9063C39.1366 98.9642 38.4506 98.7781 38.3625 98.8975C39.3912 99.3249 40.4764 99.6004 41.5841 99.7153C41.8097 99.5363 42.4259 99.5393 43.1675 99.5824C43.9089 99.6272 44.7779 99.7087 45.4992 99.7264C46.7634 100.014 48.062 100.12 49.3559 100.039C49.6659 99.8839 50.0158 99.8268 50.359 99.8757C50.7903 99.8906 51.19 99.9651 51.1604 100.101C51.6685 100.055 51.695 100.15 52.1355 100.118C52.4961 100.009 52.8664 99.9349 53.2411 99.8965C53.9024 99.8844 54.5617 99.8218 55.2135 99.7092C55.8351 99.6086 56.4893 99.4877 57.385 99.3553C57.7251 99.2661 57.9105 99.1656 58.3293 99.0751C58.8012 99.0974 59.2741 99.0919 59.7454 99.0585C59.9229 99.1297 59.546 99.189 59.4968 99.255C60.3325 99.1229 61.1554 98.9195 61.9567 98.6473C63.0272 98.34 64.0482 98.095 64.9425 97.7971C65.5155 97.607 65.9781 97.3632 66.3952 97.2357C66.7725 97.1188 66.9803 97.195 67.5215 97.0146C67.6926 96.9576 68.1471 96.7261 68.5792 96.527C69.0117 96.3289 69.4225 96.1626 69.5225 96.2645C69.1907 96.4416 69.3285 96.5289 69.0801 96.6888C69.4552 96.4781 69.5111 96.5824 69.7739 96.4879C70.221 96.3273 70.6779 96.0557 71.2 95.8047C72.0968 95.3736 72.9111 95.0073 73.6365 94.6435C74.303 94.3279 74.935 93.9438 75.5226 93.4976C75.4005 93.2721 76.4256 92.5577 77.5202 91.8049C77.8387 91.6841 78.1456 91.5347 78.4373 91.3584C78.8559 90.9484 79.3155 90.5826 79.8088 90.2668C80.2732 89.964 80.6446 89.7823 80.6222 89.9315C80.875 89.5805 81.1719 89.2638 81.5056 88.9891C81.867 88.6557 82.2557 88.3535 82.6677 88.0855C82.9714 87.7082 83.3102 87.3608 83.6797 87.048C83.7692 87.0528 84.0199 86.8053 84.006 86.9699C84.387 86.6257 84.9572 85.9449 85.004 86.1203C85.3851 85.6204 85.8094 85.155 86.2719 84.7296C86.8063 84.2324 87.3114 83.7043 87.7846 83.1482C88.0642 82.9466 88.3052 82.6963 88.4962 82.409C88.7367 82.0877 88.9688 81.7325 89.173 81.4691C89.7543 80.717 90.2649 80.0797 90.8218 79.2562C92.4824 76.8082 93.9246 74.2182 95.1318 71.5163C95.6083 70.442 96.0832 69.3015 96.5142 68.1298C96.9453 66.9586 97.3317 65.7566 97.6425 64.5695C97.8594 63.7404 97.9899 62.888 98.1681 62.0265C98.417 60.827 98.6428 59.5986 98.8026 58.4319C98.9567 57.3672 99.0459 56.2941 99.0695 55.2186C99.0799 54.3648 99.1536 53.4147 99.1406 52.519C99.1353 52.0059 99.1698 51.2278 99.1399 50.8184ZM6.17556 61.4422L6.17906 61.4354C6.21278 61.6114 6.22822 61.7904 6.22514 61.9696C6.09424 61.9837 6.02409 60.9706 6.17556 61.4422ZM5.7606 46.2156C5.76747 45.8101 5.80551 45.4058 5.8744 45.0062C6.01488 44.7356 6.15412 44.3692 6.31903 44.5359C6.24276 45.3793 5.97612 46.1423 5.7606 46.2156ZM6.46812 42.7842C6.38891 42.7464 6.56908 42.3383 6.5999 42.2606C6.67761 42.2991 6.49703 42.7056 6.46812 42.7843V42.7842ZM20.1453 80.8145C20.4154 80.9856 20.6382 81.222 20.7933 81.5021C20.728 81.5889 20.4846 81.4492 20.2996 81.2693C20.1137 81.0896 19.9873 80.8721 20.1453 80.8145V80.8145ZM17.1161 22.2715C17.1774 22.2105 17.2363 22.1497 17.2921 22.0903L17.3154 22.0658C17.3554 22.2698 16.2866 23.1977 17.1334 22.268L17.1161 22.2715ZM17.1258 78.5783L17.1104 78.5757C17.0792 78.5715 17.0486 78.5642 17.0189 78.5538L16.9001 78.3961L16.9558 78.3532L17.1013 78.5459L17.1258 78.5783ZM15.1305 72.8613C14.9751 72.8131 14.7949 72.5726 14.6282 72.277C14.4685 71.9822 14.3251 71.6788 14.1987 71.3682C14.2472 71.354 14.2953 71.3394 14.2404 71.2144C14.4674 71.42 14.6508 71.6694 14.7796 71.9476C14.9407 72.2332 15.059 72.5411 15.1305 72.8613V72.8613ZM14.6348 33.5699L14.6451 33.5435C14.7745 33.3944 14.8933 33.2362 15.0006 33.0704C14.8405 33.409 14.7737 33.3576 14.5869 33.6829L14.6348 33.5699ZM13.7977 34.6051C14.0593 34.0836 14.3577 33.6241 14.4657 33.6204C14.2777 34.0872 14.438 33.7442 14.438 33.7442L14.4384 33.7436L14.3903 33.8581C14.3752 33.8911 14.3658 33.9265 14.3623 33.9626C14.3456 33.9883 14.3266 34.0187 14.304 34.0554C14.1531 34.3057 13.8464 34.8225 13.3117 35.9301C13.4034 35.4656 13.5674 35.0184 13.7977 34.6051V34.6051ZM14.0728 72.803C14.5289 73.7733 15.035 74.7191 15.589 75.6367L15.5844 75.6397C15.581 75.6392 15.5776 75.6395 15.5744 75.6406C15.5667 75.6435 15.5585 75.6451 15.5503 75.6454C15.2406 75.2779 14.9796 74.8718 14.7738 74.4371C14.5536 73.9826 14.297 73.5467 14.0064 73.1338C13.9006 72.912 13.779 72.7084 13.6611 72.5106C13.5169 72.29 13.4007 72.0521 13.3154 71.8025L13.3269 71.8211C13.3274 71.5226 12.8894 70.9408 12.7295 70.3733C13.2364 71.1489 13.6854 71.961 14.0728 72.803V72.803ZM10.6073 50.1034L10.6762 50.1073L10.6561 50.343L10.5872 50.3398L10.6073 50.1034ZM10.16 44.4338C10.2814 43.9087 10.4373 43.3568 10.5773 42.9134C10.5774 43.349 10.5095 43.7819 10.3763 44.1964C10.2339 44.7263 10.1281 45.2655 10.0596 45.81C10.0394 45.9626 10.1042 45.9415 10.1277 45.8209C10.0058 46.9132 9.70856 47.8603 9.60915 48.7068C9.59595 48.825 9.63986 48.8044 9.66352 48.834C9.60243 49.1284 9.56441 49.4271 9.54978 49.7274C9.52107 50.0384 9.48336 50.3126 9.37095 50.4024C9.45171 49.6766 9.4666 48.8397 9.52705 48.022C9.55818 47.2629 9.69164 46.5115 9.92382 45.7883C9.97114 45.3318 10.0501 44.8792 10.16 44.4338V44.4338ZM10.5377 55.7718C10.4888 55.7397 10.4943 55.4793 10.4816 55.3034C10.5629 55.3306 10.5744 55.6115 10.5377 55.7718V55.7718ZM10.1244 53.217C10.0795 53.2764 10.0336 53.3232 9.99452 53.3057L9.99298 53.2911C9.97706 53.1769 9.96891 53.0497 9.96077 52.9147C9.9567 52.8463 9.95242 52.7763 9.94757 52.7061C9.97478 52.6848 10.0113 52.6992 10.0149 52.5892C10.1201 52.5631 10.1711 52.9414 10.1244 53.217ZM8.607 38.5105C8.5383 38.7229 8.52181 38.9518 8.45425 39.1584C8.4057 39.3068 8.26383 39.5046 8.17967 39.7684C8.13747 39.9022 8.14932 40.0946 8.12505 40.1668C8.04486 40.4015 7.9722 40.4291 7.90299 40.6553C7.63722 41.5228 7.45659 42.4932 7.11641 43.4658C7.03566 43.1355 7.34049 42.5432 7.4365 42.1792C7.60862 41.5211 7.72169 40.8596 7.92716 40.1104L7.92051 40.1141C7.95447 40.0215 7.98632 39.932 8.01322 39.8484L8.03692 39.7714C8.06846 39.6619 8.06913 39.5762 8.03692 39.5801C8.00487 39.584 7.95256 39.6744 7.92071 39.7857C7.90794 39.8292 7.88716 39.8888 7.86392 39.9527C7.76348 39.9101 7.57791 40.0007 7.76147 39.5053C7.55959 40.0134 7.32378 40.5073 7.05566 40.9836C6.93806 40.9588 6.96676 40.6269 7.06535 40.2537C7.14884 39.9087 7.28721 39.5794 7.47515 39.2786C7.70863 38.4715 7.99057 37.6793 8.31944 36.9063C8.65498 36.0932 9.03654 35.2322 9.46422 34.2415C9.68293 34.1271 9.35481 34.6937 9.48344 34.6923C9.04467 35.5548 8.6867 36.4563 8.41416 37.3852C8.20982 37.9276 8.14489 38.5129 8.22533 39.0871C8.37858 38.8125 8.47285 38.5087 8.50207 38.1953C8.65611 37.8681 8.80973 37.5776 8.97372 37.2299C8.91105 37.6717 8.78763 38.1027 8.607 38.5105V38.5105ZM9.9002 53.9081L9.8967 53.9085C9.80057 54.5882 9.75144 55.2738 9.74967 55.9604C9.62001 55.6429 9.65356 56.436 9.45273 56.2298C9.45112 56.1503 9.43768 56.0715 9.41284 55.996C9.40145 55.8811 9.39547 55.7581 9.38991 55.6299C9.3861 55.5265 9.38192 55.4197 9.37512 55.3133C9.37074 55.2423 9.35105 55.191 9.33095 55.1988C9.31086 55.2068 9.29797 55.2713 9.30271 55.3416C9.30859 55.4348 9.31235 55.5302 9.31616 55.6317C9.32317 55.7958 9.33167 55.9639 9.35286 56.1296L9.34183 56.1185C9.31817 56.4585 9.37069 56.7994 9.49555 57.1163C9.63206 57.4844 9.71113 57.8714 9.72998 58.2636C9.63727 58.3934 9.64655 58.7617 9.46201 58.6703C9.37152 58.162 9.30739 57.6494 9.26989 57.1345C9.23247 56.6878 9.19748 56.2716 9.11549 55.7718C9.07241 55.3639 9.16914 55.3668 9.19397 55.1553C9.21113 54.6674 9.19156 54.179 9.13543 53.6942C9.25448 52.9447 9.16326 51.991 9.45891 51.7444C9.46337 51.8673 9.48122 51.9894 9.51215 52.1085L9.5188 52.1011C9.50854 52.3357 9.51158 52.5744 9.51777 52.8051C9.5257 53.1072 9.53709 53.4188 9.52266 53.7144C9.51833 53.8011 9.53508 53.8837 9.56013 53.8976C9.58512 53.9117 9.60847 53.8524 9.61274 53.7655C9.61774 53.6594 9.62049 53.5541 9.62099 53.4496C9.62259 53.2119 9.61481 52.9789 9.60929 52.7511C9.60352 52.5236 9.60079 52.3078 9.61017 52.1019L9.61594 52.1089L9.62099 51.988C9.6852 52.0156 9.70277 51.8529 9.7641 51.8689C9.8146 52.2431 9.72076 52.9548 9.8565 52.844L9.86665 53.0037C9.87547 53.1494 9.88567 53.2998 9.90618 53.4448L9.90871 53.4589C9.88613 53.6076 9.88327 53.7587 9.90021 53.9081H9.9002ZM9.95803 53.5297C9.96324 53.5261 9.96751 53.5212 9.9705 53.5156L9.97602 53.5022C10.0287 53.5357 10.0849 53.4826 10.1395 53.4111L10.1393 53.4221C10.1681 53.7404 10.158 54.061 10.1094 54.3768C10.0671 54.1835 10.0125 53.9932 9.94597 53.807C9.93979 53.7144 9.94383 53.6214 9.95804 53.5297H9.95803ZM10.097 56.5279C10.0643 56.0504 10.0628 55.5713 10.0926 55.0936C10.2165 55.2661 10.1855 56.1125 10.3229 56.2664C10.2694 56.5162 10.2252 56.718 10.097 56.5279H10.097ZM11.2383 66.6932C11.061 66.2433 10.9176 65.7807 10.8094 65.3092C10.7646 65.1752 10.7204 65.231 10.6762 65.2254C10.5762 65.2171 10.8982 65.8662 10.7132 65.723C10.5247 65.2297 10.3935 64.7163 10.3221 64.1929C10.4231 64.1454 10.5148 64.4603 10.6119 64.7382C10.6137 64.4631 10.507 64 10.5345 63.7545C10.5872 63.8368 10.6417 63.8582 10.698 63.8329C10.8897 64.4111 10.9953 65.0145 11.0115 65.6237C11.2064 65.9788 11.3298 66.3689 11.3746 66.7717C11.3282 66.7207 11.282 66.672 11.2383 66.6932H11.2383ZM11.0312 50.0091C11.2392 49.2274 11.184 48.5266 11.3456 47.681L11.3466 47.6862C11.1718 49.0068 11.0602 50.3288 11.0121 51.6522C11.0026 51.6472 10.9922 51.6442 10.9815 51.6433C10.9708 51.6425 10.9601 51.6438 10.95 51.6472C11.0506 51.1073 11.0779 50.5563 11.0312 50.0091V50.0091ZM11.0028 52.0036C11 52.1034 10.9969 52.2031 10.995 52.3027C10.9806 52.2805 10.9687 52.2567 10.9595 52.2318C10.9691 52.1549 10.9835 52.0787 11.0028 52.0036H11.0028ZM11.4168 40.3386C11.4744 40.5143 11.5686 39.9692 11.6261 40.1458C11.4614 40.7487 11.2072 41.4905 10.9383 42.2434C10.8103 42.3056 11.014 41.8264 10.8396 41.9647C11.0177 41.3103 11.1695 40.7808 11.3352 40.2697C11.5008 39.7589 11.681 39.2663 11.9293 38.6923C11.837 39.2626 11.6644 39.8169 11.4168 40.3386H11.4168ZM11.8621 44.6506C11.8633 44.5962 11.8617 44.5475 11.8363 44.5418C11.8792 44.4337 11.9221 44.3105 11.9649 44.1829C11.9306 44.3386 11.8944 44.4945 11.8621 44.6506H11.8621ZM15.3856 76.1674C15.3512 76.1185 15.3201 76.082 15.3094 76.1122C15.0778 75.8764 14.9192 75.5783 14.8528 75.2541C14.7687 75.0757 14.6681 75.0295 14.5728 74.8586C14.564 74.8437 14.4675 74.542 14.4484 74.509C14.3271 74.302 14.1598 74.1278 14.0281 73.9149C13.6375 73.2771 13.28 72.6196 12.9571 71.9448C12.6176 71.2438 12.3119 70.5263 12.0602 69.8844C12.2093 69.9249 12.4342 70.527 12.5711 70.4483C12.6623 70.7326 12.8293 71.096 12.7442 71.1699C12.8986 71.3788 13.0139 71.3497 13.1983 71.7187C13.3011 72.0279 13.4425 72.3228 13.6191 72.5963C13.7349 72.7811 13.8406 72.972 13.9358 73.1682C13.9481 73.1952 13.9631 73.2208 13.9806 73.2446V73.2452C14.0108 73.4539 14.0571 73.6599 14.1189 73.8614C14.4436 74.3393 14.5375 74.7008 14.752 74.7472C14.9271 75.1559 15.1305 75.5519 15.3606 75.9323L15.3806 75.938C15.3806 75.9708 15.3822 76.0036 15.3856 76.0363C15.3923 76.0797 15.3923 76.124 15.3856 76.1674H15.3856ZM15.7089 76.7189C15.5806 76.5406 15.5917 76.4791 15.4841 76.3163C15.4976 76.2626 15.4996 76.2067 15.4899 76.1523C15.4858 76.1173 15.4843 76.0821 15.4855 76.0469L15.5208 76.1155C15.6066 76.2335 15.5933 76.1559 15.5792 76.0762L15.5988 76.0725C15.6621 76.1933 15.7327 76.3083 15.8024 76.4192C15.8678 76.5236 15.9301 76.6227 15.9796 76.7155C15.9769 76.8869 15.8296 76.6857 15.7089 76.7189H15.7089ZM16.138 76.7815C16.0652 76.6433 15.9804 76.5088 15.9047 76.3875C15.8673 76.3287 15.8321 76.2717 15.7997 76.2165C15.8315 76.185 15.7093 76.0236 15.725 75.9777L15.7132 75.9626C15.727 75.9628 15.7408 75.9613 15.7543 75.9582C15.9455 76.203 16.2355 76.5693 16.4985 76.94C16.7416 77.2492 16.9326 77.5964 17.0636 77.9676C16.9134 77.7077 16.4287 77.1538 16.138 76.7815H16.138ZM17.2509 82.1257C17.0793 81.9981 16.938 81.834 16.837 81.6452L16.8128 81.6413C16.8085 81.6239 16.8104 81.6056 16.8181 81.5894C16.8258 81.5733 16.8388 81.5603 16.855 81.5528C16.8774 81.54 16.8944 81.5196 16.9028 81.4952L16.9436 81.5531C17.0905 81.7056 17.22 81.874 17.3299 82.0552L17.2509 82.1257ZM17.0913 78.707L17.0454 78.6576C17.0906 78.6791 17.1389 78.6934 17.1886 78.7L17.1897 78.7002C17.4002 78.8657 17.5647 79.0827 17.6674 79.3304C17.4368 79.1621 17.2411 78.9504 17.0913 78.707H17.0913ZM19.942 85.3594C19.8761 85.2984 19.8286 85.2201 19.8048 85.1335L19.7529 85.0927C19.7845 85.1036 19.8115 85.111 19.8357 85.1171C19.8846 85.1279 19.9316 85.1461 19.975 85.1712L19.945 85.1695C20.0717 85.335 20.0955 85.4384 19.942 85.3594V85.3594ZM20.0534 82.1043C19.7178 81.9221 19.4147 81.6854 19.1563 81.4038C19.0508 81.4688 18.6886 81.2093 18.3713 80.8805C18.053 80.5527 17.7819 80.157 17.8322 79.9807C18.221 80.4756 18.3 80.2681 18.7244 80.8139C18.6488 80.5306 18.5052 80.2702 18.3063 80.0553C18.1948 79.9694 18.2777 80.1778 17.9441 79.7286C18.2015 79.8888 18.083 79.6179 18.3899 79.8258C18.3186 79.6939 18.0553 79.3837 17.834 79.0778C17.6121 78.7726 17.4312 78.474 17.5068 78.3813C18.1029 79.2065 18.7468 79.996 19.4351 80.7456C20.0411 81.3659 20.5672 82.0601 21.0009 82.8118C20.719 82.5334 20.4002 82.2953 20.0534 82.1043H20.0534ZM20.9328 81.6963C21.1483 81.7263 21.3933 82.1842 20.9328 81.6963V81.6963ZM25.4139 92.2452C25.4018 92.232 25.3912 92.2174 25.3824 92.2018C25.5006 92.2687 25.6821 92.3641 25.9537 92.4917C25.901 92.5426 25.6676 92.4073 25.4139 92.2452V92.2452ZM31.7284 95.7843C31.6654 95.842 31.3955 95.8039 30.8499 95.5797C30.4565 95.4009 30.4909 95.2919 30.1705 95.1205C29.7708 94.9987 29.3839 94.8379 29.0156 94.6404C28.6329 94.4369 28.3229 94.2168 28.2835 94.0799C28.8151 94.3438 28.9234 94.2252 29.3397 94.3764C30.0758 94.7417 30.5335 95.0419 31.3816 95.3888C31.6499 95.5705 31.7917 95.7262 31.7284 95.7843V95.7843ZM74.6207 11.8742C74.3131 11.8225 73.9002 11.42 74.6207 11.8742V11.8742ZM74.915 12.974C74.7296 12.8797 74.5503 12.7872 74.3749 12.697C74.4401 12.7022 74.5044 12.7157 74.5663 12.7372C74.6968 12.7925 74.8153 12.873 74.9151 12.974H74.915ZM73.1875 11.4463C73.2224 11.5868 72.8344 11.3374 72.8698 11.4781C72.4795 11.26 72.7064 11.1333 73.1875 11.4463H73.1875ZM71.7409 10.793C71.8939 10.8581 72.0081 10.8625 71.9619 10.9401C71.5388 10.7081 71.473 10.7867 71.0982 10.6048L71.0611 10.5914C71.0754 10.5853 71.0892 10.5792 71.1025 10.5724C71.1187 10.5646 71.1345 10.557 71.1516 10.5503C71.2883 10.6035 71.4307 10.6174 71.4872 10.7102C71.6285 10.7709 71.6413 10.7222 71.6535 10.6725C71.7428 10.7245 71.7786 10.7657 71.7409 10.793H71.7409ZM70.9025 9.47287C71.2115 9.55338 71.4249 9.72314 71.5298 9.7203C71.5441 9.79146 71.7714 9.93735 71.5585 9.96655C71.1414 9.76288 70.7787 9.57792 70.9025 9.47287H70.9025ZM70.7995 10.3127C70.8721 10.3476 70.9397 10.3826 70.9047 10.3995L70.9348 10.4101C70.9083 10.419 70.8826 10.4299 70.8577 10.4426L70.8434 10.4496C70.782 10.4243 70.7308 10.4079 70.7388 10.4397C70.4423 10.2997 70.7546 10.3162 70.7995 10.3127H70.7995ZM65.7738 9.45938C66.7439 9.68905 67.6946 9.99467 68.6171 10.3734C69.194 10.5837 69.8683 10.7579 70.4663 11.0104C70.7443 11.1272 71.0244 11.2559 71.3038 11.3908C70.9935 11.2892 70.6825 11.1934 70.3706 11.1001C69.5897 10.8675 68.8037 10.6496 68.0003 10.4034C67.9495 10.3479 67.8846 10.3072 67.8126 10.2856C67.468 10.2965 67.126 10.2225 66.8165 10.0701C66.4424 9.93724 66.0785 9.7773 65.7276 9.59152L65.7738 9.45938ZM63.7177 46.9252C64.1508 46.3783 64.6829 45.9183 65.2862 45.5694C65.3346 45.5404 65.3762 45.5013 65.408 45.4546C65.4399 45.4079 65.4613 45.3549 65.4707 45.2991C65.4802 45.2434 65.4775 45.1863 65.4628 45.1317C65.4481 45.0771 65.4217 45.0263 65.3856 44.9829C65.1426 44.7053 64.9363 44.3975 64.7718 44.067C64.5834 43.6798 64.4854 43.2546 64.4852 42.8238C64.4753 42.2812 64.6345 41.749 64.9407 41.3015C65.2653 40.8447 65.7128 40.4898 66.2309 40.2783C66.8427 40.0253 67.5 39.9016 68.1616 39.9148C69.0422 39.8706 69.9113 40.1302 70.6243 40.6504C70.9252 40.8839 71.1663 41.1859 71.3277 41.5315C71.489 41.8771 71.5659 42.2562 71.552 42.6375C71.5589 43.2256 71.3655 43.7984 71.0037 44.2613C70.6332 44.7087 70.186 45.0862 69.6832 45.376C69.6329 45.4077 69.5904 45.4506 69.5593 45.5013C69.5281 45.5521 69.509 45.6093 69.5034 45.6687C69.4979 45.728 69.506 45.7879 69.5272 45.8435C69.5484 45.8992 69.5821 45.9493 69.6257 45.9898L70.9924 47.264C71.0396 47.3078 71.0969 47.3394 71.1592 47.3557C71.2215 47.3721 71.2868 47.3728 71.3495 47.3578C71.4121 47.3428 71.47 47.3125 71.5182 47.2697C71.5664 47.2268 71.6033 47.1727 71.6256 47.1122C71.7346 46.8188 71.8261 46.5192 71.8994 46.215C71.9113 46.1626 71.9337 46.1132 71.9654 46.0699C71.9971 46.0265 72.0373 45.9902 72.0836 45.9632C72.1299 45.9361 72.1812 45.9189 72.2344 45.9126C72.2876 45.9062 72.3415 45.911 72.3928 45.9264L73.7507 46.3512C73.8456 46.3808 73.9257 46.4456 73.9748 46.5322C74.0239 46.6189 74.0383 46.7211 74.0151 46.818C73.8402 47.5414 73.5619 48.2356 73.1889 48.8792C73.1418 48.9554 73.1225 49.0457 73.1343 49.1345C73.146 49.2234 73.188 49.3055 73.2533 49.3669L74.1277 50.1794C74.2014 50.248 74.2458 50.3425 74.2515 50.4432C74.2572 50.5439 74.2238 50.6429 74.1583 50.7194L73.232 51.8016C73.1979 51.8414 73.1562 51.8739 73.1092 51.8971C73.0623 51.9204 73.0112 51.9339 72.9589 51.9369C72.9067 51.9398 72.8544 51.9322 72.8051 51.9144C72.7559 51.8966 72.7107 51.869 72.6724 51.8333L71.7857 51.0075C71.7195 50.947 71.6345 50.9113 71.5451 50.9065C71.4557 50.9016 71.3673 50.9278 71.295 50.9808C70.2144 51.7375 68.923 52.1324 67.6052 52.1092C66.8156 52.121 66.0311 51.9803 65.2946 51.6946C64.6644 51.4592 64.1084 51.0592 63.684 50.5361C63.3036 50.0618 63.0981 49.4704 63.1023 48.8617C63.0901 48.166 63.3064 47.4856 63.7177 46.9252H63.7177ZM62.1146 7.5244C61.84 7.63561 61.128 7.35985 60.6626 7.33422C61.1545 7.29603 61.649 7.36079 62.1146 7.5244H62.1146ZM61.2026 55.5098C61.2537 55.5098 61.3042 55.5198 61.3514 55.5394C61.3985 55.559 61.4414 55.5877 61.4775 55.6239C61.5136 55.6601 61.5422 55.7031 61.5618 55.7504C61.5813 55.7977 61.5914 55.8484 61.5914 55.8996V57.1453C61.5913 57.2361 61.5598 57.324 61.5022 57.394L55.6582 64.478C55.6111 64.5351 55.5813 64.6043 55.572 64.6777C55.5628 64.7511 55.5746 64.8256 55.606 64.8926C55.6374 64.9595 55.6872 65.0161 55.7494 65.0558C55.8117 65.0954 55.884 65.1165 55.9578 65.1165H61.4555C61.5586 65.1165 61.6575 65.1576 61.7304 65.2307C61.8033 65.3038 61.8443 65.4029 61.8443 65.5063V66.959C61.8443 67.0625 61.8033 67.1616 61.7304 67.2348C61.6575 67.3079 61.5586 67.349 61.4555 67.349H51.9113C51.8082 67.349 51.7093 67.3079 51.6364 67.2348C51.5635 67.1616 51.5225 67.0625 51.5225 66.959V65.7138C51.5225 65.6229 51.5542 65.5348 51.6121 65.4649L57.4708 58.381C57.518 58.324 57.5479 58.2547 57.5572 58.1813C57.5665 58.1078 57.5548 58.0332 57.5234 57.9662C57.492 57.8992 57.4423 57.8426 57.38 57.8029C57.3176 57.7632 57.2453 57.7421 57.1715 57.7421H52.046C51.995 57.7421 51.9444 57.7321 51.8972 57.7125C51.8501 57.6929 51.8072 57.6642 51.7711 57.628C51.735 57.5918 51.7063 57.5488 51.6868 57.5015C51.6673 57.4542 51.6572 57.4035 51.6572 57.3523V55.8996C51.6572 55.8484 51.6673 55.7977 51.6868 55.7504C51.7063 55.7031 51.735 55.6601 51.7711 55.6239C51.8072 55.5877 51.8501 55.559 51.8972 55.5394C51.9444 55.5198 51.995 55.5097 52.046 55.5098L61.2026 55.5098ZM57.2494 74.1571C57.3529 74.3383 57.5043 74.4873 57.687 74.5874C57.8792 74.693 58.0954 74.7468 58.3145 74.7436C58.4786 74.7466 58.6414 74.7148 58.7924 74.6503C58.9434 74.5858 59.0791 74.49 59.1906 74.3692L59.4793 74.65C59.3373 74.8105 59.16 74.9356 58.9615 75.0156C58.7485 75.1007 58.5209 75.1431 58.2916 75.1405C57.9978 75.1446 57.7078 75.0732 57.4493 74.9331C57.2044 74.8005 57.0005 74.6031 56.8598 74.3624C56.7203 74.1124 56.647 73.8307 56.647 73.5441C56.647 73.2576 56.7203 72.9759 56.8598 72.7259C57.001 72.4848 57.2057 72.2874 57.4514 72.1552C57.7108 72.0152 58.0015 71.9438 58.2961 71.9478C58.5244 71.945 58.7512 71.9867 58.9637 72.0705C59.1614 72.1498 59.338 72.2742 59.4793 72.4339L59.1906 72.7148C59.0788 72.5946 58.943 72.4995 58.792 72.4357C58.641 72.3719 58.4783 72.3409 58.3145 72.3446C58.0954 72.3416 57.8793 72.3954 57.687 72.5008C57.5044 72.601 57.3529 72.7499 57.2494 72.9311C57.1455 73.1186 57.091 73.3296 57.091 73.5441C57.091 73.7586 57.1455 73.9696 57.2494 74.1571V74.1571ZM56.1802 73.5443C56.1848 73.8315 56.1108 74.1144 55.9663 74.3624C55.8255 74.6034 55.6212 74.8009 55.3758 74.9331C55.114 75.0693 54.8234 75.1405 54.5285 75.1405C54.2335 75.1405 53.9429 75.0693 53.6811 74.9331C53.4348 74.8001 53.2294 74.602 53.0874 74.3602C52.9465 74.1115 52.8724 73.8303 52.8724 73.5442C52.8724 73.2581 52.9465 72.9769 53.0874 72.7281C53.2295 72.4864 53.4348 72.2883 53.6811 72.1552C53.9429 72.019 54.2335 71.9479 54.5285 71.9479C54.8234 71.9479 55.114 72.019 55.3758 72.1552C55.6212 72.2874 55.8255 72.4848 55.9663 72.7259C56.1108 72.974 56.1848 73.257 56.1802 73.5443H56.1802ZM49.5462 75.1048L49.5419 75.7871H49.1282L49.1326 74.717H49.2835C49.48 74.705 49.6178 74.5496 49.6971 74.2508C49.7918 73.8362 49.8409 73.4123 49.8436 72.9869L49.8751 71.9834H52.0625V74.717H52.5207V75.7871H52.107V75.1048H49.5462ZM59.4504 5.88775L59.4768 5.89209C59.4925 5.89545 59.5085 5.8984 59.525 5.90077C59.6353 5.91679 59.7441 5.93623 59.8521 5.95757L59.8398 6.02031L59.4375 5.95643L59.4504 5.88775ZM59.8577 7.96976C60.0115 8.10882 59.8619 8.08903 59.8088 8.20929C59.4423 8.17621 59.4876 8.105 59.1761 8.06996C59.1495 7.92215 59.3494 7.87188 59.8577 7.96976H59.8577ZM56.0812 5.52388C56.3109 5.53246 56.5304 5.54368 56.7336 5.5705C56.4231 5.64989 56.0954 5.62941 55.7971 5.51195C55.8929 5.51629 55.9882 5.52001 56.0812 5.52388H56.0812ZM53.0712 5.39076V5.39303L53.0676 5.39065L53.0712 5.39076ZM52.5909 5.45727C52.6208 5.4575 52.6507 5.45489 52.6802 5.44946C52.7392 5.44673 52.7869 5.4413 52.7948 5.42508C52.9051 5.42342 52.9887 5.41841 53.0701 5.41298L53.0695 5.42534C53.0924 5.47707 53.3972 5.46203 53.6126 5.47097C53.3824 5.5158 53.1492 5.54331 52.9149 5.55329C52.636 5.56704 52.3848 5.5523 52.3868 5.45681L52.5909 5.45727ZM46.741 42.8492C47.2961 41.9201 48.0956 41.1623 49.0518 40.6588C50.0774 40.1364 51.2114 39.8641 52.3617 39.8641C53.512 39.8641 54.6461 40.1364 55.6716 40.6588C56.6344 41.1739 57.4395 41.9417 58.0009 42.8801C58.5622 43.8185 58.8588 44.8922 58.8588 45.9865C58.8588 47.0808 58.5622 48.1545 58.0009 49.0929C57.4395 50.0313 56.6344 50.7991 55.6716 51.3142C54.6461 51.8368 53.5121 52.1092 52.3617 52.1092C51.2114 52.1092 50.0773 51.8368 49.0518 51.3142C48.0955 50.8108 47.296 50.0529 46.741 49.1238C46.194 48.1692 45.9062 47.0875 45.9062 45.9865C45.9062 44.8855 46.194 43.8038 46.741 42.8492V42.8492ZM49.8858 55.5098C49.9369 55.5098 49.9874 55.5198 50.0346 55.5394C50.0817 55.559 50.1246 55.5877 50.1607 55.6239C50.1968 55.6601 50.2255 55.7031 50.245 55.7504C50.2645 55.7977 50.2746 55.8484 50.2746 55.8996V57.1453C50.2746 57.2361 50.243 57.324 50.1854 57.394L44.3415 64.478C44.2944 64.5351 44.2646 64.6043 44.2553 64.6777C44.2461 64.7511 44.2579 64.8257 44.2893 64.8926C44.3207 64.9595 44.3705 65.0161 44.4328 65.0558C44.4951 65.0954 44.5674 65.1165 44.6411 65.1165H50.1388C50.1898 65.1165 50.2404 65.1265 50.2876 65.1461C50.3347 65.1657 50.3776 65.1945 50.4137 65.2307C50.4498 65.2669 50.4784 65.3098 50.498 65.3571C50.5175 65.4044 50.5276 65.4551 50.5276 65.5063V66.959C50.5276 67.0625 50.4866 67.1616 50.4137 67.2348C50.3408 67.3079 50.2419 67.349 50.1388 67.349H40.5945C40.4914 67.349 40.3925 67.3079 40.3196 67.2348C40.2467 67.1616 40.2058 67.0625 40.2058 66.959V65.7138C40.2057 65.6229 40.2374 65.5348 40.2953 65.4649L46.1541 58.381C46.2013 58.324 46.2312 58.2547 46.2406 58.1813C46.2499 58.1078 46.2382 58.0332 46.2068 57.9662C46.1754 57.8992 46.1256 57.8426 46.0633 57.8029C46.001 57.7632 45.9287 57.7421 45.8548 57.7421H40.7292C40.6782 57.7421 40.6276 57.732 40.5804 57.7125C40.5333 57.6929 40.4904 57.6642 40.4543 57.628C40.4182 57.5918 40.3896 57.5488 40.37 57.5015C40.3505 57.4542 40.3404 57.4035 40.3404 57.3523V55.8996C40.3404 55.8484 40.3505 55.7977 40.37 55.7504C40.3896 55.7031 40.4182 55.6601 40.4543 55.6239C40.4904 55.5877 40.5333 55.559 40.5804 55.5394C40.6276 55.5198 40.6782 55.5098 40.7292 55.5098L49.8858 55.5098ZM46.6248 75.1048H46.158L45.815 74.3246H44.1616L43.8186 75.1048H43.3605L44.7706 71.9834H45.2102L46.6248 75.1048ZM35.5212 7.8078L35.5143 7.80713C35.6271 7.77333 35.7392 7.73328 35.8483 7.69431C35.9667 7.64986 36.0873 7.61148 36.2095 7.57933L36.1892 7.59985C36.4918 7.49588 36.821 7.50039 37.1207 7.61261C37.432 7.72533 37.7708 7.73745 38.0894 7.64729C37.5575 8.00949 36.9632 8.26953 36.3367 8.41419C35.6272 8.62374 35.0731 8.69914 35.5473 8.31145L35.8066 8.2143L35.7755 8.20479C35.8474 8.19063 35.9185 8.17259 35.9884 8.15073L36.0028 8.14588C36.0313 8.13887 36.0568 8.12309 36.0759 8.10076C36.08 8.08717 36.0478 8.08733 36.004 8.10112C35.9792 8.10882 35.9527 8.11585 35.9259 8.12231C35.9249 8.02004 35.5599 8.16411 35.3608 8.19864C35.4878 7.98981 35.1734 8.04293 35.5212 7.8078ZM34.6313 42.8322C35.1818 41.9077 35.9754 41.1528 36.9251 40.6503C37.9356 40.1169 39.0634 39.8465 40.2052 39.8641C41.1575 39.8501 42.1023 40.0343 42.98 40.4052C43.6675 40.7011 44.2887 41.1325 44.8067 41.6738C44.841 41.7115 44.8676 41.7556 44.8849 41.8037C44.9021 41.8517 44.9098 41.9027 44.9073 41.9537C44.9049 42.0047 44.8924 42.0547 44.8707 42.1009C44.8489 42.147 44.8183 42.1884 44.7805 42.2227L43.5918 43.3231C43.5159 43.3914 43.4165 43.4274 43.3146 43.4237C43.2127 43.42 43.1161 43.3768 43.0453 43.3033C42.6919 42.9458 42.2702 42.6637 41.8054 42.4737C41.3406 42.2838 40.8423 42.1901 40.3404 42.1981C39.6577 42.186 38.9836 42.3521 38.3842 42.6802C37.8195 42.9923 37.3546 43.4584 37.043 44.0246C36.7274 44.6301 36.5626 45.3032 36.5626 45.9865C36.5626 46.6697 36.7274 47.3428 37.043 47.9484C37.3546 48.5146 37.8196 48.9808 38.3842 49.2931C38.9836 49.6211 39.6577 49.7872 40.3404 49.7752C40.8434 49.7828 41.3427 49.6876 41.8078 49.4953C42.2729 49.3029 42.694 49.0175 43.0454 48.6565C43.1161 48.5822 43.2128 48.5384 43.3151 48.5344C43.4175 48.5303 43.5173 48.5664 43.5936 48.6349L44.7825 49.7357C44.8584 49.8045 44.9041 49.9007 44.9094 50.0032C44.9147 50.1058 44.8793 50.2062 44.8108 50.2826C44.2926 50.8335 43.6663 51.2711 42.9714 51.5678C42.0908 51.9384 41.1433 52.1227 40.1884 52.1092C39.0521 52.1253 37.93 51.8549 36.9251 51.3227C35.9754 50.8201 35.1819 50.0653 34.6313 49.1408C34.0843 48.1801 33.7965 47.0929 33.7965 45.9865C33.7965 44.8802 34.0843 43.793 34.6313 42.8322V42.8322ZM28.2846 12.916C28.3881 12.6664 28.8444 12.532 28.2846 12.916V12.916ZM23.2554 40.4568C23.2554 40.3534 23.2964 40.2542 23.3693 40.1811C23.4422 40.108 23.541 40.0669 23.6441 40.0669H31.7885C31.8917 40.0669 31.9905 40.108 32.0635 40.1811C32.1364 40.2542 32.1773 40.3534 32.1773 40.4568V41.8756C32.1773 41.9268 32.1673 41.9775 32.1478 42.0249C32.1282 42.0722 32.0996 42.1152 32.0635 42.1514C32.0274 42.1876 31.9845 42.2163 31.9373 42.2359C31.8902 42.2555 31.8396 42.2656 31.7885 42.2656H26.3599C26.3088 42.2656 26.2582 42.2757 26.2111 42.2953C26.1639 42.3148 26.121 42.3436 26.0849 42.3798C26.0488 42.416 26.0202 42.4589 26.0006 42.5062C25.9811 42.5536 25.971 42.6043 25.971 42.6555V44.4465C25.971 44.4977 25.9811 44.5484 26.0006 44.5957C26.0202 44.643 26.0488 44.686 26.0849 44.7222C26.121 44.7584 26.1639 44.7871 26.2111 44.8066C26.2582 44.8262 26.3088 44.8363 26.3599 44.8363H31.0633C31.1664 44.8363 31.2654 44.8774 31.3383 44.9505C31.4112 45.0236 31.4522 45.1228 31.4522 45.2262V46.5777C31.4522 46.6811 31.4112 46.7803 31.3383 46.8534C31.2653 46.9265 31.1664 46.9676 31.0633 46.9676H26.3599C26.3088 46.9676 26.2582 46.9777 26.2111 46.9973C26.1639 47.0169 26.121 47.0456 26.0849 47.0818C26.0488 47.118 26.0202 47.161 26.0006 47.2083C25.9811 47.2556 25.971 47.3063 25.971 47.3575V49.3175C25.971 49.3687 25.9811 49.4194 26.0006 49.4667C26.0202 49.514 26.0488 49.557 26.0849 49.5932C26.121 49.6294 26.1639 49.6581 26.2111 49.6777C26.2582 49.6973 26.3088 49.7074 26.3599 49.7073H32.0078C32.1109 49.7074 32.2098 49.7485 32.2827 49.8216C32.3556 49.8947 32.3966 49.9939 32.3966 50.0973V51.5162C32.3966 51.6196 32.3556 51.7188 32.2827 51.7919C32.2098 51.865 32.1109 51.9061 32.0078 51.9061H23.6441C23.5931 51.9061 23.5425 51.896 23.4954 51.8764C23.4482 51.8568 23.4054 51.8281 23.3693 51.7919C23.3332 51.7557 23.3045 51.7127 23.285 51.6654C23.2655 51.6181 23.2554 51.5674 23.2554 51.5162V40.4568ZM22.1523 82.9873C22.4739 83.0912 22.7607 83.2823 22.9809 83.5394C23.262 83.8137 23.5431 84.1299 23.7931 84.3452C23.5098 84.2044 23.2512 84.0186 23.0271 83.7949C22.7381 83.5361 22.433 83.2333 22.1523 82.9873V82.9873ZM24.4365 73.3391L25.4146 71.9834H25.8901L24.7785 73.495L25.9433 75.1048H25.4363L24.4278 73.7315H23.7786V75.1048H23.3422V71.9834H23.7786V73.3391H24.4365ZM23.9829 89.1683L23.7807 89.0239C23.6491 88.9304 23.5249 88.8406 23.4153 88.7483C23.2587 88.5044 24.0813 88.9586 24.3423 89.2538C24.2174 89.2201 24.1718 89.2822 23.9829 89.1683V89.1683ZM29.5306 92.5855C29.2954 92.5265 28.8701 92.2865 28.6785 92.2604C28.2277 91.8198 27.9071 91.4042 27.3763 90.9221C27.5243 90.8353 27.9075 90.9652 28.2022 91.1274C28.4962 91.2897 28.7032 91.488 28.4855 91.555C28.8858 91.8255 29.3753 92.106 29.6622 92.3369L29.5306 92.5855ZM31.7355 93.9732L31.7153 93.9644C31.7006 93.9569 31.6852 93.9493 31.669 93.9425C31.571 93.9012 31.4752 93.8565 31.3806 93.8104L31.3931 93.7841L31.4227 93.7204L31.7792 93.8773L31.7355 93.9732ZM31.9361 90.9036C31.1354 90.623 30.3602 90.2739 29.6192 89.86C28.898 89.4682 28.203 89.0299 27.5383 88.5479C27.2308 88.4542 26.9437 88.3027 26.6925 88.1016C26.4528 87.9273 26.2387 87.7202 26.0564 87.4863C25.6381 87.2438 25.0709 86.9444 24.6072 86.6255C24.1424 86.3079 23.7825 85.973 23.7677 85.6917C23.4116 85.4106 22.9937 85.0896 23.203 85.0462C23.4091 85.1759 23.5909 85.341 23.7401 85.5338C24.601 86.1116 25.5043 86.801 26.4199 87.4591C27.2845 88.0986 28.1879 88.6836 29.1248 89.2108L29.1465 89.2144C29.1755 89.2581 29.2078 89.2995 29.2432 89.3383C29.3054 89.3988 29.3814 89.4433 29.4647 89.4679C29.5402 89.4879 29.5631 89.4624 29.5162 89.4112C29.4991 89.3926 29.483 89.3731 29.4678 89.3528C29.6233 89.237 30.187 89.5032 30.686 89.7978C31.1425 90.0697 31.5467 90.3674 31.4985 90.4613C31.7281 90.5239 31.9448 90.6269 32.1386 90.7654C31.9876 90.8323 32.0871 90.8368 31.9361 90.9036L31.9361 90.9036ZM27.7932 75.1405C27.4972 75.1448 27.205 75.0735 26.9442 74.9331C26.6978 74.8 26.4925 74.6019 26.3504 74.3602C26.2095 74.1115 26.1354 73.8303 26.1354 73.5442C26.1354 73.2581 26.2095 72.9769 26.3504 72.7281C26.4925 72.4864 26.6978 72.2883 26.9442 72.1552C27.2059 72.019 27.4965 71.9478 27.7915 71.9478C28.0864 71.9478 28.377 72.019 28.6388 72.1552C28.8842 72.2874 29.0886 72.4848 29.2294 72.7259C29.3696 72.9757 29.4432 73.2575 29.4432 73.5441C29.4432 73.8308 29.3696 74.1126 29.2294 74.3624C29.0885 74.6034 28.8842 74.8008 28.6388 74.9331C28.3791 75.0732 28.0881 75.1446 27.7932 75.1405V75.1405ZM28.3155 87.1233C27.977 87.0128 27.6681 86.8262 27.4124 86.5778C27.5429 86.5147 28.1017 86.9636 28.3155 87.1233V87.1233ZM27.2925 86.9633C27.2876 87.029 26.7346 86.6466 27.0178 86.7365C27.1024 86.8201 27.1944 86.896 27.2925 86.9633V86.9633ZM26.5113 86.4299C26.3455 86.4185 26.1881 86.3523 26.0636 86.2418C26.0895 86.1456 26.2639 86.2444 26.5113 86.4299V86.4299ZM32.3287 73.8698C32.0557 74.0766 31.7182 74.1793 31.3766 74.1596H30.608V75.1048H30.163V71.9834H31.3766C31.7182 71.9637 32.0557 72.0664 32.3287 72.2733C32.438 72.3753 32.5251 72.4989 32.5847 72.6362C32.6443 72.7736 32.675 72.9218 32.675 73.0715C32.675 73.2213 32.6443 73.3695 32.5847 73.5068C32.5251 73.6441 32.438 73.7677 32.3287 73.8698ZM32.8689 62.0806C32.4365 62.743 31.817 63.2612 31.0896 63.569C30.2279 63.9308 29.2998 64.1065 28.3658 64.0847H26.3766C26.2735 64.0847 26.1746 64.1258 26.1017 64.1989C26.0288 64.272 25.9878 64.3712 25.9878 64.4746V66.959C25.9878 67.0624 25.9469 67.1616 25.8739 67.2347C25.801 67.3079 25.7022 67.349 25.599 67.349H23.6441C23.541 67.349 23.4421 67.3079 23.3692 67.2347C23.2964 67.1616 23.2554 67.0624 23.2554 66.959V55.8996C23.2554 55.8484 23.2655 55.7977 23.285 55.7504C23.3045 55.7031 23.3332 55.6601 23.3693 55.6239C23.4054 55.5877 23.4482 55.559 23.4954 55.5394C23.5425 55.5198 23.5931 55.5098 23.6441 55.5098H28.3658C29.3006 55.4879 30.2293 55.6667 31.0896 56.0341C31.8148 56.3456 32.4333 56.863 32.8689 57.5225C33.2775 58.2121 33.4931 58.9994 33.4931 59.8016C33.4931 60.6037 33.2775 61.391 32.8689 62.0806H32.8689ZM35.9839 75.1048H35.5485V72.7014L33.7031 75.1048H33.2938V71.9834H33.7345V74.3915L35.5746 71.9834H35.9839V75.1048ZM35.8213 67.349C35.7182 67.349 35.6193 67.3079 35.5464 67.2348C35.4734 67.1616 35.4325 67.0625 35.4324 66.959V55.8996C35.4325 55.8484 35.4425 55.7977 35.4621 55.7504C35.4816 55.7031 35.5103 55.6601 35.5464 55.6239C35.5825 55.5877 35.6253 55.559 35.6725 55.5394C35.7197 55.5198 35.7703 55.5097 35.8213 55.5098H37.7761C37.8271 55.5098 37.8777 55.5198 37.9249 55.5394C37.972 55.559 38.0149 55.5877 38.051 55.6239C38.0871 55.6601 38.1157 55.7031 38.1353 55.7504C38.1548 55.7977 38.1649 55.8484 38.1649 55.8996V66.959C38.1649 67.0625 38.1239 67.1616 38.051 67.2348C37.9781 67.3079 37.8792 67.349 37.7761 67.349H35.8213ZM36.4441 96.7603C36.505 96.694 36.8104 96.7835 36.9677 96.8746C36.7883 96.8642 36.6116 96.8257 36.4441 96.7603V96.7603ZM38.6458 96.8073C38.0306 96.6243 37.9595 96.7404 37.3469 96.5438L37.3063 96.678C37.1575 96.6416 37.0118 96.5931 36.8707 96.533C36.8457 96.4997 36.842 96.4664 36.8644 96.4451L36.8709 96.4391L36.8609 96.429C36.7763 96.363 36.6825 96.3099 36.5824 96.2714C36.5458 96.2549 36.5112 96.2385 36.4795 96.2225L36.5008 96.1563C36.9086 96.2512 37.3232 96.3142 37.7407 96.3445C38.1619 96.3783 38.5737 96.4872 38.9567 96.6661C38.9639 96.773 38.6393 96.7011 38.6458 96.8073V96.8073ZM37.303 74.1571C37.4063 74.3383 37.5578 74.4873 37.7404 74.5874C37.9326 74.693 38.1487 74.7468 38.3678 74.7436C38.5319 74.7466 38.6948 74.7148 38.8458 74.6503C38.9968 74.5858 39.1325 74.49 39.2439 74.3692L39.5327 74.65C39.3907 74.8105 39.2134 74.9357 39.0149 75.0156C38.8019 75.1007 38.5744 75.1431 38.3451 75.1405C38.0512 75.1446 37.7612 75.0732 37.5026 74.9331C37.2578 74.8005 37.0539 74.6031 36.9132 74.3624C36.7737 74.1124 36.7004 73.8306 36.7004 73.5441C36.7004 73.2576 36.7737 72.9759 36.9132 72.7259C37.0544 72.4848 37.2591 72.2873 37.5048 72.1552C37.7642 72.0152 38.0549 71.9438 38.3494 71.9478C38.5778 71.945 38.8045 71.9867 39.017 72.0705C39.2148 72.1497 39.3914 72.2741 39.5327 72.4339L39.2439 72.7147C39.1322 72.5946 38.9964 72.4995 38.8454 72.4357C38.6944 72.3719 38.5316 72.3409 38.3678 72.3446C38.1487 72.3416 37.9326 72.3954 37.7404 72.5008C37.5578 72.601 37.4064 72.7499 37.303 72.9311C37.199 73.1185 37.1444 73.3295 37.1444 73.5441C37.1444 73.7586 37.199 73.9696 37.303 74.1571V74.1571ZM40.146 71.9834H40.5901V73.3257H42.378V71.9834H42.8231V75.1048H42.378V73.7136H40.5901V75.1048H40.146V71.9834ZM43.6823 97.9704C43.5317 98.1043 44.3238 98.1072 44.3201 98.219C44.2181 98.3999 43.4969 98.3369 43.4578 98.5398C42.9987 98.565 42.5426 98.4518 42.1483 98.2148C41.5268 98.1288 40.9146 97.9849 40.3198 97.7849C40.3127 97.6542 40.3406 97.5448 40.8907 97.6812C40.7513 97.5903 40.5738 97.501 40.4058 97.4102C41.2492 97.3992 41.9544 97.4454 42.8247 97.4693C43.1476 97.5696 43.4842 97.6187 43.8223 97.6147C44.1521 97.6003 44.4804 97.6676 44.7782 97.8106C44.7112 97.9789 44.239 97.9976 43.6823 97.9704V97.9704ZM54.5613 98.6531L54.5364 98.6527C54.2514 98.7567 53.9507 98.8104 53.6474 98.8115C53.3106 98.8239 53.0221 98.788 53.043 98.6974C51.6217 99.016 50.1589 99.1052 48.7096 98.9617C48.6687 98.8538 49.0293 98.7982 48.7201 98.7187C48.5419 98.7171 48.5943 98.7782 48.4471 98.7848C47.9539 98.7417 47.4587 98.726 46.9637 98.7378C47.0492 98.849 47.0527 98.809 46.9494 98.911C46.4514 99.001 45.9381 98.9439 45.4718 98.7467C45.4617 98.6828 45.6145 98.6768 45.8831 98.7081C45.9775 98.5678 45.1653 98.5853 45.3734 98.4242C46.1469 98.4629 46.5956 98.4785 47.0286 98.5069C47.4614 98.5331 47.8783 98.5712 48.5901 98.6131C48.582 98.6609 48.6503 98.6903 48.7201 98.7187C49.1296 98.7156 49.5375 98.6677 49.9366 98.5758C50.8142 98.5493 51.61 98.5569 52.3793 98.5417C53.1392 98.5376 53.8976 98.4772 54.6486 98.3609C54.7798 98.4089 54.9225 98.4157 55.0576 98.3804L55.0806 98.3752C55.0307 98.399 54.973 98.4223 54.9125 98.4464C54.7602 98.5069 54.5897 98.5734 54.5613 98.6531V98.6531ZM58.776 98.8272C58.4856 98.9092 58.1831 98.9388 57.8825 98.9147C57.4794 99.0272 57.0696 99.1138 56.6555 99.1738C56.2911 99.2365 55.9203 99.2525 55.5519 99.2212C56.1652 98.9466 56.821 98.7795 57.4906 98.7272C58.2022 98.6096 58.9208 98.5393 59.6416 98.5168C59.372 98.6672 59.0795 98.772 58.776 98.8272V98.8272ZM57.9234 98.2752C57.4012 98.3828 56.7831 98.5205 56.2143 98.6078C55.7521 98.7029 55.2772 98.7188 54.8097 98.6551L54.8068 98.6206L54.7975 98.6229C54.8785 98.5483 54.9766 98.4948 55.083 98.4672C55.1605 98.4376 55.2364 98.404 55.3103 98.3665C55.6535 98.2771 56.0812 98.1893 56.5009 98.1227C56.912 98.0476 57.3298 98.0156 57.7475 98.0274C58.3507 97.8225 58.9735 97.6812 59.6059 97.6059L59.6518 97.8428C59.0941 98.0527 58.5141 98.1978 57.9234 98.2752L57.9234 98.2752ZM61.1293 72.3715V75.1048H60.693V72.3715H59.6302V71.9834H62.1966V72.3715H61.1293ZM64.9485 75.1048L64.6065 74.3246H62.952L62.6102 75.1048H62.152L63.5611 71.9834H64.0019L65.4153 75.1048H64.9485ZM68.2369 74.8819C67.9811 75.0469 67.6792 75.125 67.3758 75.1048H65.9537V71.9834H67.2923C67.5734 71.967 67.8525 72.0396 68.0902 72.1909C68.1839 72.2581 68.2592 72.3478 68.3093 72.4518C68.3594 72.5558 68.3826 72.6707 68.3768 72.786C68.3814 72.9401 68.3369 73.0917 68.2498 73.2188C68.1601 73.3417 68.0356 73.4349 67.8926 73.4863C68.0767 73.522 68.2443 73.6167 68.3702 73.7561C68.4952 73.9254 68.551 74.1363 68.5262 74.3455C68.5014 74.5547 68.3979 74.7466 68.2369 74.8819V74.8819ZM66.1525 64.8119C66.0755 64.8119 66.0003 64.8348 65.9363 64.8776C65.8724 64.9205 65.8225 64.9815 65.7931 65.0528L64.9458 67.108C64.9164 67.1793 64.8666 67.2403 64.8027 67.2832C64.7387 67.3261 64.6635 67.349 64.5865 67.349H62.6458C62.581 67.349 62.5172 67.3328 62.4602 67.3017C62.4033 67.2707 62.355 67.2259 62.3197 67.1714C62.2844 67.1169 62.2632 67.0544 62.2582 66.9896C62.2531 66.9248 62.2643 66.8597 62.2907 66.8003L67.2064 55.7408C67.237 55.672 67.2868 55.6136 67.3499 55.5726C67.4129 55.5315 67.4864 55.5097 67.5615 55.5098H69.7558C69.8309 55.5098 69.9044 55.5315 69.9674 55.5725C70.0304 55.6134 70.0802 55.6717 70.1109 55.7405L75.0418 66.7999C75.0682 66.8592 75.0795 66.9243 75.0745 66.9891C75.0695 67.054 75.0484 67.1165 75.0131 67.1711C74.9778 67.2257 74.9295 67.2706 74.8726 67.3016C74.8156 67.3327 74.7518 67.349 74.6869 67.349H72.6796C72.6026 67.349 72.5274 67.3261 72.4635 67.2832C72.3995 67.2403 72.3497 67.1793 72.3204 67.108L71.4734 65.0529C71.4441 64.9816 71.3942 64.9206 71.3303 64.8777C71.2663 64.8348 71.1911 64.8119 71.1142 64.8119H66.1525ZM74.6558 75.1048L74.3128 74.3246H72.6595L72.3164 75.1048H71.3697L70.3601 73.7315H69.711V75.1048H69.2756V71.9834H69.711V73.3391H70.3688L71.347 71.9834H71.8236L70.7119 73.495L71.8653 75.089L73.2684 71.9834H73.7081L75.1226 75.1048H74.6558Z" fill="white"/>
<path d="M67.3673 73.6959H66.3936V74.7526H67.3673C67.8449 74.7526 68.0838 74.5743 68.0838 74.2176C68.0894 74.1419 68.0758 74.0661 68.0442 73.9971C68.0127 73.9281 67.9643 73.8682 67.9036 73.823C67.7417 73.7273 67.5547 73.683 67.3673 73.6959Z" fill="white"/>
<path d="M63.1079 73.9678H64.4509L63.7789 72.4381L63.1079 73.9678Z" fill="white"/>
<path d="M67.7571 73.2276C67.8141 73.1831 67.8595 73.1254 67.8892 73.0594C67.9189 72.9933 67.9321 72.921 67.9275 72.8487C67.9317 72.7759 67.9182 72.7031 67.8882 72.6367C67.8581 72.5703 67.8124 72.5122 67.7549 72.4674C67.6088 72.3711 67.4354 72.3249 67.2609 72.3359H66.3936V73.3569H67.2609C67.4358 73.3683 67.6098 73.323 67.7571 73.2276V73.2276Z" fill="white"/>
<path d="M66.2554 49.6398C66.7128 49.9314 67.2492 50.0731 67.7905 50.0454C68.3952 50.0515 68.9925 49.9113 69.5318 49.6368C69.5878 49.608 69.6362 49.5661 69.6727 49.5146C69.7093 49.4632 69.733 49.4037 69.7419 49.3412C69.7508 49.2786 69.7445 49.2148 69.7238 49.1552C69.703 49.0956 69.6682 49.0418 69.6224 48.9984L67.3648 46.8817C67.3026 46.8231 67.223 46.7865 67.1381 46.7778C67.0532 46.7691 66.9678 46.7886 66.895 46.8333C66.5629 47.029 66.2667 47.2803 66.0194 47.5764C65.7975 47.861 65.6787 48.2128 65.6822 48.5741C65.6797 48.7859 65.7311 48.9948 65.8313 49.1813C65.9316 49.3677 66.0776 49.5255 66.2554 49.6398V49.6398Z" fill="white"/>
</svg>
