<svg width="39" height="38" viewBox="0 0 39 38" fill="none" xmlns="http://www.w3.org/2000/svg">
<g clip-path="url(#clip0_45_182)">
<path d="M36.6088 9.44953C36.6034 7.54812 35.0577 6.01098 33.1563 6.01625C32.3838 6.0184 31.6728 6.76452 31.0995 7.19566C30.5239 6.76764 29.8087 6.02553 29.0363 6.02768C27.1348 6.03302 25.5977 7.57878 25.603 9.48019C25.6082 11.3052 31.1222 15.2649 31.1222 15.2649C31.1222 15.2649 36.6139 11.2746 36.6088 9.44953Z" fill="#FF3F62"/>
<path d="M31.2042 15.2649C31.2042 15.2649 36.696 11.2746 36.6909 9.44953C36.6856 7.54812 35.1398 6.01098 33.2384 6.01625C32.4659 6.0184 31.7549 6.76452 31.1816 7.19566L31.2042 15.2649Z" fill="#FF0C38"/>
<path d="M37.9201 21.243H25.6558L22.0806 30.9824C21.9214 31.4165 21.5089 31.6976 21.057 31.6976C20.9891 31.6976 20.9205 31.6912 20.8515 31.6782C20.3608 31.585 20.0036 31.1569 19.9661 30.6588L18.8145 15.3592L17.2062 20.4789C17.0634 20.9336 16.6419 21.2429 16.1653 21.2429H1.04883V19.0608H15.3645L18.4354 9.28562C18.6053 8.74457 19.1658 8.41689 19.7323 8.55182C20.1993 8.663 20.5304 9.08019 20.5664 9.55897L21.7667 25.5052L23.8698 19.7758C24.0275 19.3462 24.4365 19.0607 24.8941 19.0607H37.9201V21.243Z" fill="#D7D5D9"/>
<path opacity="0.26" d="M2.73233 19.061H1.04883V21.2432H2.73233V19.061Z" fill="#3E3B43"/>
<path opacity="0.26" d="M37.8954 19.061H36.2119V21.2432H37.8954V19.061Z" fill="#3E3B43"/>
<path d="M27.9911 13.48C29.3756 14.7028 30.7359 15.6823 30.7931 15.7233C30.8915 15.794 31.0069 15.8293 31.1223 15.8293C31.2387 15.8293 31.3552 15.7933 31.4541 15.7215C31.511 15.6801 32.8659 14.6931 34.2435 13.4625C36.8731 11.1138 37.175 10.0465 37.1734 9.44785C37.1672 7.24207 35.3708 5.45184 33.1663 5.45184C33.1625 5.45184 33.1588 5.45184 33.155 5.45184C32.3372 5.45414 31.6541 6.01657 31.1052 6.46849C31.1028 6.4705 31.1003 6.4725 31.0979 6.4745C31.0955 6.4725 31.093 6.47042 31.0905 6.46842C30.5402 6.02043 29.8558 5.46327 29.04 5.46327C29.0384 5.46327 29.0366 5.46327 29.0351 5.46327C26.8255 5.46951 25.0329 7.27213 25.0391 9.4817C25.0405 10.0803 25.3483 11.146 27.9911 13.48ZM29.038 6.59207C29.0386 6.59207 29.0392 6.59207 29.0398 6.59207C29.4541 6.59207 29.9448 6.99151 30.3776 7.34383C30.5109 7.45219 30.6366 7.55461 30.7629 7.6485C30.9637 7.79782 31.2389 7.79708 31.439 7.64664C31.5648 7.55201 31.6899 7.449 31.8224 7.33982C32.254 6.98446 32.7433 6.5816 33.158 6.58049C33.1608 6.58049 33.1634 6.58049 33.1661 6.58049C34.7495 6.58049 36.0401 7.86655 36.0445 9.45097C36.0451 9.65878 35.8632 10.501 33.4976 12.6151C32.5572 13.4556 31.6057 14.1949 31.1203 14.5623C30.6327 14.1976 29.6771 13.4637 28.7321 12.6285C26.3548 10.5277 26.1681 9.68647 26.1675 9.47866C26.1631 7.89141 27.4508 6.59652 29.038 6.59207Z" fill="black"/>
<path d="M37.8951 18.7826H24.8692C24.1779 18.7826 23.5535 19.2186 23.3152 19.8676L22.1092 23.1531L21.1022 9.77461C21.0426 8.98433 20.4281 8.34494 19.6408 8.25431C18.8535 8.16392 18.1096 8.64664 17.8721 9.40278L14.9254 18.7827H1.02383C0.712188 18.7827 0.459473 19.0354 0.459473 19.347V21.5292C0.459473 21.8409 0.712188 22.0936 1.02383 22.0936H16.1405C16.8673 22.0936 17.502 21.6277 17.7199 20.9343L18.4476 18.6179L19.3808 31.0169C19.4389 31.7883 20.0371 32.4257 20.8033 32.5322C20.8791 32.5428 20.9561 32.5481 21.0322 32.5481C21.7231 32.5481 22.3473 32.1121 22.5856 31.463L26.025 22.0934H37.8952C38.2068 22.0934 38.4595 21.8407 38.4595 21.5291V19.3469C38.4595 19.0353 38.2068 18.7826 37.8951 18.7826ZM37.3308 20.9648H25.631C25.3942 20.9648 25.1827 21.1125 25.1011 21.3347L21.5259 31.0742C21.4418 31.3035 21.2042 31.4484 20.9588 31.4144C20.715 31.3805 20.5247 31.1777 20.5063 30.9322L19.3524 15.6032C19.3321 15.3333 19.1231 15.1158 18.8542 15.0849C18.8324 15.0824 18.8108 15.0811 18.7893 15.0811C18.5455 15.0811 18.3258 15.239 18.2513 15.4763L16.6429 20.5959C16.5736 20.8166 16.3717 20.9648 16.1404 20.9648H1.58819V19.9113H15.3396C15.5861 19.9113 15.8041 19.7514 15.878 19.5161L18.9488 9.74099C19.0244 9.50045 19.2609 9.34667 19.5116 9.37561C19.7621 9.40441 19.9577 9.60792 19.9766 9.85937L21.179 25.8339C21.1989 26.0988 21.4009 26.3138 21.6639 26.3505C21.9269 26.3874 22.18 26.2354 22.2715 25.986L24.3747 20.2565C24.4505 20.05 24.6492 19.9113 24.8691 19.9113H37.3308V20.9648Z" fill="black"/>
</g>
<defs>
<clipPath id="clip0_45_182">
<rect width="38" height="38" fill="white" transform="translate(0.459473)"/>
</clipPath>
</defs>
</svg>
