<svg width="13" height="19" viewBox="0 0 13 19" fill="none" xmlns="http://www.w3.org/2000/svg">
<path fill-rule="evenodd" clip-rule="evenodd" d="M3.62689 0.0171712C1.59269 0.205334 0 1.91667 0 4V15C0 17.2091 1.79086 19 4 19H8.66667C10.8758 19 12.6667 17.2091 12.6667 15V4C12.6667 1.79086 10.8758 0 8.66666 0H8.54167H4H3.79167C3.73516 0 3.68005 0.00591914 3.62689 0.0171712ZM8.87752 1.50877C10.1596 1.61583 11.1667 2.6903 11.1667 4V15C11.1667 16.3807 10.0474 17.5 8.66667 17.5H4C2.61929 17.5 1.5 16.3807 1.5 15V4C1.5 2.77661 2.37876 1.75846 3.5395 1.54232C3.6187 1.56892 3.7035 1.58333 3.79167 1.58333H8.54167C8.66174 1.58333 8.77556 1.5566 8.87752 1.50877ZM7.125 15.8333C7.125 16.2706 6.77056 16.625 6.33333 16.625C5.89611 16.625 5.54167 16.2706 5.54167 15.8333C5.54167 15.3961 5.89611 15.0417 6.33333 15.0417C6.77056 15.0417 7.125 15.3961 7.125 15.8333Z" fill="#2D8340"/>
</svg>
